<svg id="Layer_1" data-name="Layer 1" xmlns="http://www.w3.org/2000/svg" xmlns:xlink="http://www.w3.org/1999/xlink" viewBox="0 0 707.62 648.11"><defs><style>.cls-1{fill:#fff;}.cls-2{fill:#17468f;}.cls-3{fill:#d1d3d4;}.cls-4{fill:#d2d3d4;}.cls-5{fill:#919396;}.cls-6{fill:#fae965;}.cls-7{fill:#231f20;}.cls-8{fill:#5a5b5d;}.cls-9{fill:#cd332d;}.cls-10{fill:#cc3732;}.cls-11{fill:#00b386;}.cls-12{fill:#32669a;}.cls-13{fill:#ca2128;}.cls-14{fill:#3b5999;}.cls-15{fill:#017bb6;}.cls-16{fill:#2aa8e0;}.cls-17{fill:#32506d;}.cls-18{fill:#c7c7c7;}.cls-19{fill:#ffec70;}.cls-20{fill:#73a03c;}.cls-21{fill:#8c8c8c;}.cls-22,.cls-24,.cls-25,.cls-29,.cls-53{fill:none;}.cls-22{stroke:#e6e7e8;stroke-width:0.5px;}.cls-22,.cls-24,.cls-25,.cls-29{stroke-miterlimit:10;}.cls-23{fill:#666;}.cls-24{stroke:#c7c7c7;}.cls-24,.cls-25{stroke-width:3.75px;}.cls-25{stroke:#17468f;}.cls-26{fill:#777ca0;}.cls-27{fill:#d9cc5a;}.cls-28{fill:#978f3e;}.cls-29{stroke:#fff;stroke-width:1.5px;}.cls-30{fill:#839bcb;}.cls-31{fill:#065faa;}.cls-32{fill:#0a61aa;}.cls-33{fill:#efde60;}.cls-34{fill:#e4d662;}.cls-35{fill:#7f99cc;}.cls-36{fill:#efdd60;}.cls-37{fill:#f2e063;}.cls-38{fill:#f2e05f;}.cls-39{fill:#f4e15f;}.cls-40{fill:#f5e261;}.cls-41{fill:#f8e45d;}.cls-42{fill:#1363a6;}.cls-43{fill:#0c61a7;}.cls-44{fill:#1564a6;}.cls-45{fill:#0960a8;}.cls-46{fill:#f1df60;}.cls-47{isolation:isolate;font-size:2.36px;fill:#005cb5;font-family:MyriadPro-Regular, Myriad Pro;}.cls-48{fill:#0033a1;}.cls-49{fill:url(#radial-gradient);}.cls-50{fill:#9594d2;}.cls-51{fill:#e6e7f5;}.cls-52{fill:#c4c5e7;}</style><radialGradient id="radial-gradient" cx="51.09" cy="136.17" r="27.14" gradientTransform="translate(0.02 -128.23) scale(1 1.25)" gradientUnits="userSpaceOnUse"><stop offset="0" stop-color="#f4ea2b"/><stop offset="0.58" stop-color="#f4e829"/><stop offset="0.79" stop-color="#f5e222"/><stop offset="0.94" stop-color="#f7d617"/><stop offset="1" stop-color="#f8cf0f"/></radialGradient></defs><g id="Layer_3" data-name="Layer 3"><path class="cls-1" d="M317.8,366.8a3.66,3.66,0,0,0-3.2-3.6,14.63,14.63,0,0,0,0,7.2A3.66,3.66,0,0,0,317.8,366.8Z" transform="translate(0.02 0.01)"/><path class="cls-1" d="M319.9,365.6a1.1,1.1,0,1,0,1.1,1.1h0A1.18,1.18,0,0,0,319.9,365.6Z" transform="translate(0.02 0.01)"/><path class="cls-1" d="M335.5,366.8a3.66,3.66,0,0,0,3.2,3.6,14.63,14.63,0,0,0,0-7.2A3.66,3.66,0,0,0,335.5,366.8Z" transform="translate(0.02 0.01)"/><path class="cls-1" d="M333.4,365.6a1.15,1.15,0,1,0,1.1,1.2h0C334.6,366.2,334.1,365.7,333.4,365.6Z" transform="translate(0.02 0.01)"/><path class="cls-1" d="M326.6,375.7a3.66,3.66,0,0,0-3.6,3.2,14.63,14.63,0,0,0,7.2,0A3.59,3.59,0,0,0,326.6,375.7Z" transform="translate(0.02 0.01)"/><path class="cls-1" d="M326.6,372.5a1.1,1.1,0,1,0,1.1,1.1h0A1,1,0,0,0,326.6,372.5Z" transform="translate(0.02 0.01)"/><path class="cls-1" d="M326.6,357.9a3.66,3.66,0,0,0,3.6-3.2,14.63,14.63,0,0,0-7.2,0A3.65,3.65,0,0,0,326.6,357.9Z" transform="translate(0.02 0.01)"/><path class="cls-1" d="M326.6,358.9a1.1,1.1,0,1,0,1.1,1.1h0A1,1,0,0,0,326.6,358.9Z" transform="translate(0.02 0.01)"/><path class="cls-1" d="M332.9,373.1a3.65,3.65,0,0,0-.3,4.8,14.65,14.65,0,0,0,5.1-5.1A3.66,3.66,0,0,0,332.9,373.1Z" transform="translate(0.02 0.01)"/><path class="cls-1" d="M330.6,370.8a1.13,1.13,0,1,0,1.6,0h0A1.21,1.21,0,0,0,330.6,370.8Z" transform="translate(0.02 0.01)"/><path class="cls-1" d="M320.3,360.5a3.65,3.65,0,0,0,.3-4.8,14.65,14.65,0,0,0-5.1,5.1A3.65,3.65,0,0,0,320.3,360.5Z" transform="translate(0.02 0.01)"/><path class="cls-1" d="M321,361.2a1.13,1.13,0,1,0,1.6,0h0A1,1,0,0,0,321,361.2Z" transform="translate(0.02 0.01)"/><path class="cls-1" d="M332.9,360.5a3.65,3.65,0,0,0,4.8.3,14.65,14.65,0,0,0-5.1-5.1A3.66,3.66,0,0,0,332.9,360.5Z" transform="translate(0.02 0.01)"/><path class="cls-1" d="M332.2,362.8a1.13,1.13,0,1,0-1.6,0h0A1.21,1.21,0,0,0,332.2,362.8Z" transform="translate(0.02 0.01)"/><path class="cls-1" d="M320.3,373.1a3.65,3.65,0,0,0-4.8-.3,14.65,14.65,0,0,0,5.1,5.1A3.65,3.65,0,0,0,320.3,373.1Z" transform="translate(0.02 0.01)"/><path class="cls-1" d="M321,370.8a1.13,1.13,0,1,0,1.6,0h0A1,1,0,0,0,321,370.8Z" transform="translate(0.02 0.01)"/></g><g id="Layer_1-2" data-name="Layer 1"><g id="Layer_1-3" data-name="Layer 1"><g id="Layer_1-2-2" data-name="Layer 1-2"><g id="Layer_1-2-2-2" data-name="Layer 1-2-2"><g id="Layer_2" data-name="Layer 2"><path class="cls-1" d="M332.8,306.3a3.09,3.09,0,0,0-4.2,0,3.1,3.1,0,0,0-4.2.4,3,3,0,0,0,0,3.8l3.8,3.8a.48.48,0,0,0,.7,0h0l3.8-3.8a2.87,2.87,0,0,0,.2-4.1A.1.1,0,0,0,332.8,306.3Z" transform="translate(0.02 0.01)"/><path class="cls-1" d="M339.6,321.4,336,318a4.3,4.3,0,0,0-3.1-1.2h-7a1.35,1.35,0,0,0-1.4,1.3v.1a1.42,1.42,0,0,0,1.3,1.4H331a.79.79,0,0,1,.8.8h0a.86.86,0,0,1-.8.8h-8.7a.76.76,0,0,1-.5-.2l-3.7-2.9a1.35,1.35,0,1,0-1.7,2.1l.1.1,5.6,4.4a1.14,1.14,0,0,0,.8.3H333a1.42,1.42,0,0,1,.6.2l4.4,4.2a1.3,1.3,0,0,0,1.9.1l.1-.1h0a1.28,1.28,0,0,0,.4-1v-4.8A2.65,2.65,0,0,0,339.6,321.4Z" transform="translate(0.02 0.01)"/></g><g id="Layer_1-3-2" data-name="Layer 1-3"><polygon class="cls-2" points="363.13 2.71 362.43 2.01 358.73 5.61 355.02 2.01 354.32 2.71 358.73 7.01 358.73 7.01 358.73 7.01 363.13 2.71"/><polygon class="cls-2" points="356.93 54.71 356.23 55.41 359.82 59.11 356.23 62.91 356.93 63.51 361.23 59.21 361.23 59.11 361.23 59.11 356.93 54.71"/><polygon points="363.13 21.81 362.43 21.11 358.73 24.71 355.02 21.11 354.32 21.81 358.73 26.11 358.73 26.11 358.73 26.11 363.13 21.81"/><polygon class="cls-3" points="363.13 38.41 362.43 37.71 358.73 41.31 355.02 37.71 354.32 38.41 358.73 42.71 358.73 42.71 358.73 42.71 363.13 38.41"/><polyline class="cls-4" points="583.23 22.71 584.33 22.71 592.73 5.01 591.52 5.01"/><polygon class="cls-5" points="618.63 3.61 609.42 35.91 610.02 35.91 619.13 3.61 618.63 3.61"/><polygon class="cls-1" points="664.52 0.01 634.52 111.01 635.63 111.01 665.63 0.01 664.52 0.01"/><path class="cls-1" d="M601.5,187.9a11.2,11.2,0,1,1,11.2,11.2,11.18,11.18,0,0,1-11.2-11.2Zm2.5,0a8.7,8.7,0,1,0,8.7-8.7A8.71,8.71,0,0,0,604,187.9Z" transform="translate(0.02 0.01)"/><rect class="cls-1" x="595.67" y="197.61" width="11.2" height="2.8" transform="translate(35.17 482.98) rotate(-44.95)"/><path d="M298.9,21.1a10.55,10.55,0,1,1,10.5-10.6h0a10.41,10.41,0,0,1-10.3,10.6Zm0-19.2a8.66,8.66,0,0,0-8.6,8.6,8.6,8.6,0,0,0,17.2,0,8.41,8.41,0,0,0-8.3-8.6Z" transform="translate(0.02 0.01)"/><rect x="295.13" y="9.61" width="7.7" height="1.9"/><rect x="298.02" y="6.71" width="1.9" height="7.7"/><path class="cls-1" d="M123.5,580.3a14.1,14.1,0,1,1,14.1-14.1h0a14,14,0,0,1-13.9,14.1Zm0-25.7A11.55,11.55,0,1,0,135,566.2h0A11.65,11.65,0,0,0,123.5,554.6Z" transform="translate(0.02 0.01)"/><rect class="cls-1" x="118.33" y="564.91" width="10.3" height="2.6"/><rect class="cls-1" x="122.22" y="561.11" width="2.6" height="10.3"/><path class="cls-1" d="M298.9,99.7a10.55,10.55,0,1,1,10.5-10.6h0a10.46,10.46,0,0,1-10.2,10.6Zm0-19.1a8.6,8.6,0,1,0,8.6,8.6,8.41,8.41,0,0,0-8.3-8.6Z" transform="translate(0.02 0.01)"/><rect class="cls-1" x="295.13" y="88.21" width="7.7" height="1.9"/><rect class="cls-1" x="298.02" y="85.41" width="1.9" height="7.7"/><rect class="cls-6" x="410.02" y="116.81" width="3.6" height="16.4"/><path class="cls-7" d="M291.5,43.2a10.54,10.54,0,1,1,14.9,0h0A10.56,10.56,0,0,1,291.5,43.2ZM305,29.6a8.63,8.63,0,1,0,0,12.2h0a8.57,8.57,0,0,0,0-12.2Z" transform="translate(0.02 0.01)"/><rect class="cls-7" x="295.13" y="34.81" width="7.7" height="1.9"/><path class="cls-6" d="M291.5,69.4a10.54,10.54,0,1,1,14.9,0h0A10.56,10.56,0,0,1,291.5,69.4ZM305,55.8A8.63,8.63,0,1,0,305,68h0a8.57,8.57,0,0,0,0-12.2Z" transform="translate(0.02 0.01)"/><rect class="cls-6" x="295.13" y="61.01" width="7.7" height="1.9"/><path class="cls-2" d="M325.8,21.1a10.55,10.55,0,1,1,10.5-10.6h0A10.41,10.41,0,0,1,326,21.1Zm0-19.2a8.66,8.66,0,0,0-8.6,8.6,8.6,8.6,0,1,0,8.6-8.6Z" transform="translate(0.02 0.01)"/><rect class="cls-2" x="321.92" y="9.61" width="7.7" height="1.9"/><rect class="cls-2" x="324.82" y="6.71" width="1.9" height="7.7"/><path class="cls-2" d="M318.3,43.2a10.54,10.54,0,1,1,14.9,0h0A10.56,10.56,0,0,1,318.3,43.2Zm13.6-13.6a8.63,8.63,0,1,0,0,12.2h0A8.75,8.75,0,0,0,331.9,29.6Z" transform="translate(0.02 0.01)"/><rect class="cls-2" x="321.92" y="34.81" width="7.7" height="1.9"/><rect class="cls-2" x="15.22" y="494.63" width="2.9" height="10.2" transform="translate(-348.51 158.22) rotate(-45.01)"/><rect class="cls-2" x="11.69" y="503.36" width="10.2" height="2.9" transform="translate(-352.01 159.74) rotate(-45)"/><path class="cls-2" d="M4.4,576a15.13,15.13,0,1,1,21.4,0A15.15,15.15,0,0,1,4.4,576Zm19.5-19.5a12.37,12.37,0,1,0,0,17.5,12.28,12.28,0,0,0,.2-17.3Z" transform="translate(0.02 0.01)"/><path class="cls-2" d="M5.5,643.6a15.56,15.56,0,1,1,22,0h0A15.69,15.69,0,0,1,5.5,643.6Zm20-20a12.73,12.73,0,1,0,0,18h0a12.67,12.67,0,0,0,0-18Z" transform="translate(0.02 0.01)"/><rect class="cls-2" x="16.62" y="625.23" width="2.8" height="9.8" transform="translate(-440.33 197.38) rotate(-45.01)"/><rect class="cls-2" x="12.9" y="633.69" width="9.9" height="2.8" transform="translate(-444.07 198.91) rotate(-45.03)"/><path class="cls-1" d="M53.9,643.6a15.56,15.56,0,1,1,22,0h0A15.69,15.69,0,0,1,53.9,643.6Zm20-20a12.73,12.73,0,1,0,0,18h0A12.86,12.86,0,0,0,73.9,623.6Z" transform="translate(0.02 0.01)"/><rect class="cls-1" x="64.69" y="625.1" width="2.8" height="9.9" transform="translate(-426.07 231.21) rotate(-44.99)"/><rect class="cls-1" x="61.29" y="633.59" width="9.8" height="2.8" transform="translate(-429.82 233.08) rotate(-45.03)"/><polygon class="cls-8" points="263.52 23.21 263.52 19.01 267.63 19.01 267.63 23.21 271.93 23.21 271.93 17.81 265.63 12.11 259.43 17.91 259.43 23.21 263.52 23.21"/><polygon class="cls-8" points="272.73 17.21 265.63 10.71 258.52 17.21 257.13 15.61 265.63 7.81 274.13 15.61 272.73 17.21"/><rect class="cls-9" x="138.33" y="236.51" width="25.5" height="25.5"/><path class="cls-1" d="M149.3,239h-1.2l-.8,3-.8-3h-1.2l.7,2.1a21.72,21.72,0,0,1,.7,2.4v3.1h1.1v-3.1Zm3.1,5.8v-2a3.19,3.19,0,0,0-.3-1.4,1.58,1.58,0,0,0-2.2-.3l-.3.3a1.74,1.74,0,0,0-.3,1.4v2a3.19,3.19,0,0,0,.3,1.4,1.58,1.58,0,0,0,2.2.3l.3-.3A3.19,3.19,0,0,0,152.4,244.8Zm-1,.2c0,.5-.2.8-.5.8s-.5-.3-.5-.8v-2.4c0-.5.2-.8.5-.8s.5.3.5.8Zm4.8,1.6v-5.7h-1v4.4c-.2.3-.4.5-.6.5s-.2-.1-.2-.2V241h-1v4.5a2.77,2.77,0,0,0,.1.9.57.57,0,0,0,.7.4h0a1.85,1.85,0,0,0,1.2-.7v.6l.8-.1Z" transform="translate(0.02 0.01)"/><path class="cls-1" d="M159.6,253.6a26.93,26.93,0,0,1-.3,4,2.12,2.12,0,0,1-1.8,1.7,45.63,45.63,0,0,1-6.4.2c-2.1,0-4.2,0-6.4-.2a2.12,2.12,0,0,1-1.8-1.7,26.82,26.82,0,0,1,0-8,2.12,2.12,0,0,1,1.8-1.7,45.63,45.63,0,0,1,6.4-.2c2.1,0,4.2,0,6.4.2a2.12,2.12,0,0,1,1.8,1.7A26.93,26.93,0,0,1,159.6,253.6Z" transform="translate(0.02 0.01)"/><path class="cls-9" d="M147.4,250.7v-1.1h-3.6v1.1H145v6.5h1.1v-6.5Zm2.1,6.6v-.6a1.85,1.85,0,0,1-1.2.7.67.67,0,0,1-.7-.4,2.2,2.2,0,0,1-.1-.8v-4.5h1v4.6c0,.2.1.2.2.2a1,1,0,0,0,.6-.5v-4.3h1v5.7h-.8Zm3.9-1.6c0,.5-.1.8-.4.8a.76.76,0,0,1-.5-.2v-3.5a.76.76,0,0,1,.5-.2c.3,0,.4.3.4.8v2.3Zm1-.1v-2.3a4.1,4.1,0,0,0-.1-1.1c-.1-.4-.4-.7-.8-.6a2.38,2.38,0,0,0-1.1.6v-2.5h-1v7.6h1v-.5a1.15,1.15,0,0,0,1.1.6.76.76,0,0,0,.8-.6,1.67,1.67,0,0,0,.1-1.2Zm2.8-1.8h-1v-.5c0-.5.2-.8.5-.8s.5.3.5.8Zm1,1.7v-.2h-1v.7c0,.2-.3.4-.5.4-.4,0-.5-.3-.5-.8v-1h2.1v-1.2a2.77,2.77,0,0,0-.3-1.3,1.36,1.36,0,0,0-2-.3h-.1l-.3.3a2.77,2.77,0,0,0-.3,1.3v2a2.77,2.77,0,0,0,.3,1.3,1.36,1.36,0,0,0,1.9.5,1.44,1.44,0,0,0,.7-1.1c.1,0,.1-.3,0-.6Z" transform="translate(0.02 0.01)"/><rect class="cls-10" x="276.73" y="236.51" width="25.5" height="25.5"/><path class="cls-1" d="M289,240.5a1,1,0,0,1,.5.4c.2.2.4.5.6.7a3.13,3.13,0,0,1,.5,1,5.85,5.85,0,0,1,.2,1.3,4.28,4.28,0,0,1-.6,2.2,4.35,4.35,0,0,1-.6.7,2.7,2.7,0,0,1-.8.7,1,1,0,0,0-.4.5.84.84,0,0,0-.2.7,1.85,1.85,0,0,0,.2.7c.1.1.2.3.4.4l.9.7a9.27,9.27,0,0,1,1.4,1.4,3.94,3.94,0,0,1,.6,2.1,4.22,4.22,0,0,1-1.6,3.3,7.16,7.16,0,0,1-4.9,1.5,6.4,6.4,0,0,1-4-1.1,3.13,3.13,0,0,1-1.3-2.5,4.19,4.19,0,0,1,.4-1.6,3.62,3.62,0,0,1,1.5-1.5,6.22,6.22,0,0,1,2.6-.9,16.35,16.35,0,0,1,2.2-.2,2.18,2.18,0,0,1-.5-.8,1.23,1.23,0,0,1-.2-1,1.27,1.27,0,0,1,.1-.6l.1-.4h-.8a3.7,3.7,0,0,1-3.1-1.3,3.86,3.86,0,0,1-1.1-2.7,4.42,4.42,0,0,1,1.6-3.4,4.77,4.77,0,0,1,2.2-1.2,8.2,8.2,0,0,1,2.2-.2h5.1l-1.6.9-1.6.2Zm1,14.6a2.72,2.72,0,0,0-.6-1.7,12,12,0,0,0-2.1-1.7h-1.6a9.36,9.36,0,0,0-1.6.4l-.5.2a1.79,1.79,0,0,0-.7.5c-.2.3-.4.5-.6.8a2.66,2.66,0,0,0-.3,1.2,2.75,2.75,0,0,0,1.2,2.2,6.2,6.2,0,0,0,3.2.9,4.3,4.3,0,0,0,2.7-.8A2.25,2.25,0,0,0,290,255.1Zm-3.5-7.4a2.84,2.84,0,0,0,1.7-.7,1.78,1.78,0,0,0,.4-1c0-.3.1-.6.1-.9a6.11,6.11,0,0,0-.8-3,2.94,2.94,0,0,0-1-1.2,3.36,3.36,0,0,0-1.4-.5,2.14,2.14,0,0,0-1.7.8,2.51,2.51,0,0,0-.5,1.9,6,6,0,0,0,.8,2.9,4,4,0,0,0,1,1.2A1.87,1.87,0,0,0,286.5,247.7Z" transform="translate(0.02 0.01)"/><polygon class="cls-1" points="299.13 242.41 296.43 242.41 296.43 239.71 295.13 239.71 295.13 242.41 292.43 242.41 292.43 243.61 295.13 243.61 295.13 246.31 296.43 246.31 296.43 243.61 299.13 243.61 299.13 242.41"/><rect class="cls-11" x="230.63" y="236.51" width="25.4" height="25.4"/><path class="cls-1" d="M246,244.7a1.16,1.16,0,0,1,1.2-1.2,1.2,1.2,0,0,1,1.2,1.1v.3a10.32,10.32,0,0,1-.4,3h2.4a20.55,20.55,0,0,0,.2-3.5c0-3.7-6.8-4.3-6.8.4a6.19,6.19,0,0,0,3.1,5.9,15.3,15.3,0,0,1-3.1,4.1c-5.1-4.1-4.6-11.1-4.6-11.1H237c0,9.4,5,12.7,5.6,13.2a1.67,1.67,0,0,0,1.5.4c.7,0,2.4-1.7,4.4-4.9a4.05,4.05,0,0,0,.5-.9,7.72,7.72,0,0,0,1.5.2v-2a4.73,4.73,0,0,1-4.5-5Z" transform="translate(0.02 0.01)"/><rect class="cls-12" x="322.82" y="236.51" width="25.5" height="25.5"/><polygon class="cls-7" points="322.82 262.01 322.82 262.01 348.43 262.01 348.43 236.51 322.82 236.51 322.82 262.01 322.82 262.01 322.82 262.01 322.82 262.01 322.82 236.51 348.32 236.51 348.32 262.01 322.82 262.01"/><path class="cls-1" d="M329.3,240.9h12.5A2.2,2.2,0,0,1,344,243h0v12.5a2.14,2.14,0,0,1-2.1,2.2H329.4a2.22,2.22,0,0,1-2.2-2.2h0V243a2,2,0,0,1,1.9-2.1h.2Zm10.1,1.8a.79.79,0,0,0-.8.8h0v1.8a.79.79,0,0,0,.8.8h1.9a.79.79,0,0,0,.8-.8h0v-1.8a.79.79,0,0,0-.8-.8h-1.9Zm2.7,5.3h-1.5a3.18,3.18,0,0,1,.2,1.4,5.26,5.26,0,0,1-10.5,0,6.75,6.75,0,0,1,.2-1.4h-1.6v7.1c0,.4.2.7.6.7h11.7c.4,0,.7-.2.7-.6h0l.2-7.2Zm-6.5-2a3.4,3.4,0,0,0-3.2,3.4,3.3,3.3,0,1,0,6.6-.2,3.27,3.27,0,0,0-3.4-3.2Z" transform="translate(0.02 0.01)"/><rect class="cls-13" x="92.22" y="236.51" width="25.5" height="25.5"/><path class="cls-1" d="M104.9,240a9.18,9.18,0,0,0-9.2,9.2h0a9.32,9.32,0,0,0,5.5,8.4,7.49,7.49,0,0,1,.2-2.1l1.2-5a4,4,0,0,1-.3-1.5c0-1.4.8-2.4,1.8-2.4a1.3,1.3,0,0,1,1.3,1.2v.2c-.2,1.1-.5,2.2-.8,3.3a1.45,1.45,0,0,0,1,1.7h.4c1.8,0,2.9-2.3,2.9-4.9,0-2-1.4-3.5-3.8-3.5a4.35,4.35,0,0,0-4.5,4.2h0v.2a2.79,2.79,0,0,0,.6,1.8c.2.1.2.3.1.5l-.2.7c0,.2-.2.3-.4.3h-.1a3.67,3.67,0,0,1-1.9-3.5c0-2.6,2.2-5.8,6.6-5.8a5.39,5.39,0,0,1,5.8,5h0v.3c0,3.6-2,6.3-5,6.3a2.66,2.66,0,0,1-2.2-1.1s-.5,2.1-.7,2.5a7.22,7.22,0,0,1-.9,2,9.34,9.34,0,0,0,11.2-6.7,9.23,9.23,0,0,0-6.4-11.1h0l-.3-.1a11.48,11.48,0,0,0-1.9-.1Z" transform="translate(0.02 0.01)"/><rect class="cls-14" x="0.02" y="236.51" width="25.4" height="25.4"/><path class="cls-1" d="M22.1,251.8l.5-3.9H18.8v-2.5c0-1.1.3-1.9,1.9-1.9h2.1V240a15.06,15.06,0,0,0-3-.1c-3,0-5,1.8-5,5.1v2.9H11.4v3.9h3.4v10h4v-10Z" transform="translate(0.02 0.01)"/><rect class="cls-15" x="184.42" y="236.51" width="25.5" height="25.5"/><path class="cls-1" d="M188.8,246.4h3.6V258h-3.6Zm1.8-5.8a2.1,2.1,0,1,1-2.1,2.1,2.34,2.34,0,0,1,2.1-2.1h0" transform="translate(0.02 0.01)"/><path class="cls-1" d="M194.7,246.4h3.4V248h0a3.9,3.9,0,0,1,3.4-1.9c3.6,0,4.3,2.4,4.3,5.5V258h-3.6v-5.7c0-1.3,0-3.1-1.9-3.1s-2.2,1.5-2.2,3v5.7h-3.6l.2-11.5Z" transform="translate(0.02 0.01)"/><rect class="cls-16" x="46.12" y="236.51" width="25.5" height="25.5"/><path class="cls-1" d="M67.3,244a6.64,6.64,0,0,1-2,.6,3.17,3.17,0,0,0,1.5-1.9,8.49,8.49,0,0,1-2.2.9,3.48,3.48,0,0,0-4.9-.3,3.55,3.55,0,0,0-1.1,3.5,10.19,10.19,0,0,1-7.2-3.7,3.63,3.63,0,0,0,1.1,4.7,4.19,4.19,0,0,1-1.6-.4h0a3.44,3.44,0,0,0,2.8,3.4,4.33,4.33,0,0,1-1.6.1,3.55,3.55,0,0,0,3.3,2.4,6.63,6.63,0,0,1-4.3,1.5,2.2,2.2,0,0,1-.8-.1A9.94,9.94,0,0,0,64,251.9v-.1h0v-.1a10,10,0,0,0,1.6-5.3V246A10.61,10.61,0,0,0,67.3,244Z" transform="translate(0.02 0.01)"/><path class="cls-1" d="M151.4,206c.3,0,.5-.3.5-.8v-2.4c0-.5-.2-.8-.5-.8s-.5.3-.5.8v2.4C150.9,205.7,151,206,151.4,206Z" transform="translate(0.02 0.01)"/><path class="cls-1" d="M138.9,222.2h25.5V196.7H138.9Zm14.9-21.1h1v4.6c0,.2.1.2.2.2a1,1,0,0,0,.6-.5V201h1v5.7h-1v-.6a1.85,1.85,0,0,1-1.2.7.67.67,0,0,1-.7-.4,2.77,2.77,0,0,1-.1-.9l.2-4.4Zm-4,1.9a3.19,3.19,0,0,1,.3-1.4,1.58,1.58,0,0,1,2.2-.3l.3.3a1.74,1.74,0,0,1,.3,1.4v2a3.19,3.19,0,0,1-.3,1.4,1.58,1.58,0,0,1-2.2.3l-.3-.3a1.74,1.74,0,0,1-.3-1.4Zm-2.7-3.9.8,3,.8-3h1.2l-1.4,4.6v3.1h-1.1v-3.1a21.72,21.72,0,0,0-.7-2.4l-.7-2.1,1.1-.1Zm-3.7,10.7a2.12,2.12,0,0,1,1.8-1.7,45.63,45.63,0,0,1,6.4-.2c2.1,0,4.2,0,6.4.2a2.12,2.12,0,0,1,1.8,1.7,26.82,26.82,0,0,1,0,8,2.12,2.12,0,0,1-1.8,1.7,45.63,45.63,0,0,1-6.4.2c-2.1,0-4.2,0-6.4-.2a2.12,2.12,0,0,1-1.8-1.7,26.81,26.81,0,0,1,0-8Z" transform="translate(0.02 0.01)"/><path class="cls-1" d="M148.9,217.5a1.85,1.85,0,0,0,1.2-.7v.6h1v-5.7h-1V216c-.2.3-.4.5-.6.5s-.2-.1-.2-.2v-4.6h-1v4.5a2.2,2.2,0,0,0,.1.8C148.3,217.4,148.6,217.6,148.9,217.5Z" transform="translate(0.02 0.01)"/><path class="cls-1" d="M153,216.9a1.15,1.15,0,0,0,1.1.6.76.76,0,0,0,.8-.6,4.1,4.1,0,0,0,.1-1.1v-2.3a4.1,4.1,0,0,0-.1-1.1c-.1-.4-.4-.7-.8-.6a2.38,2.38,0,0,0-1.1.6v-2.5h-1v7.6h1v-.6Zm0-4a.76.76,0,0,1,.5-.2c.3,0,.4.3.4.8v2.4c0,.5-.1.8-.4.8a.76.76,0,0,1-.5-.2Z" transform="translate(0.02 0.01)"/><polygon class="cls-1" points="145.63 217.51 146.72 217.51 146.72 210.91 148.03 210.91 148.03 209.91 144.43 209.91 144.43 210.91 145.63 210.91 145.63 217.51"/><path class="cls-1" d="M157.3,217.5a1.32,1.32,0,0,0,1.4-1.2h0v-.8h-1v.7c0,.2-.3.4-.5.4-.4,0-.5-.3-.5-.8v-1h2.1v-1.2a2.77,2.77,0,0,0-.3-1.3,1.36,1.36,0,0,0-2-.3h-.1l-.3.3a2.77,2.77,0,0,0-.3,1.3v2a2.77,2.77,0,0,0,.3,1.3,1.43,1.43,0,0,0,1.2.6Zm-.5-4.1c0-.5.2-.8.5-.8s.5.3.5.8v.5h-1Z" transform="translate(0.02 0.01)"/><path class="cls-1" d="M289.1,206.1c0-.3.1-.6.1-.9a6.11,6.11,0,0,0-.8-3,2.94,2.94,0,0,0-1-1.2,2.39,2.39,0,0,0-1.4-.5,2.14,2.14,0,0,0-1.7.8,2.51,2.51,0,0,0-.5,1.9,6,6,0,0,0,.8,2.9,4,4,0,0,0,1,1.2,2.39,2.39,0,0,0,1.4.5,2.84,2.84,0,0,0,1.7-.7A3,3,0,0,0,289.1,206.1Z" transform="translate(0.02 0.01)"/><path class="cls-1" d="M283.7,217.2a6.2,6.2,0,0,0,3.2.9,3.77,3.77,0,0,0,2.7-.8,2.46,2.46,0,0,0,.9-1.9,2.72,2.72,0,0,0-.6-1.7,12,12,0,0,0-2.1-1.7h-.6a3.4,3.4,0,0,0-1,.1,9.36,9.36,0,0,0-1.6.4l-.5.2a1.79,1.79,0,0,0-.7.5c-.2.3-.4.5-.6.8a2.66,2.66,0,0,0-.3,1.2A3.22,3.22,0,0,0,283.7,217.2Z" transform="translate(0.02 0.01)"/><path class="cls-1" d="M277.2,222.2h25.5V196.7H277.2ZM293,202.5h2.7v-2.7H297v2.7h2.7v1.3H297v2.7h-1.3v-2.7H293ZM280.8,214a3.62,3.62,0,0,1,1.5-1.5,6.22,6.22,0,0,1,2.6-.9,16.35,16.35,0,0,1,2.2-.2,2.18,2.18,0,0,1-.5-.8,1.23,1.23,0,0,1-.2-1,1.27,1.27,0,0,1,.1-.6l.2-.4h-.8a3.7,3.7,0,0,1-3.1-1.3,3.86,3.86,0,0,1-1.1-2.7,4.42,4.42,0,0,1,1.6-3.4,4.77,4.77,0,0,1,2.2-1.2,8.2,8.2,0,0,1,2.2-.2h5.1l-1.6.9h-1.6a1,1,0,0,1,.5.4c.2.2.4.5.6.7a3.13,3.13,0,0,1,.5,1,5.85,5.85,0,0,1,.2,1.3,4.28,4.28,0,0,1-.6,2.2,4.35,4.35,0,0,1-.6.7l-.8.7a1,1,0,0,0-.4.5.84.84,0,0,0-.2.7,1.85,1.85,0,0,0,.2.7.78.78,0,0,0,.4.4l.9.7a9.27,9.27,0,0,1,1.4,1.4,3.94,3.94,0,0,1,.6,2.1,4.22,4.22,0,0,1-1.6,3.3,7.16,7.16,0,0,1-4.9,1.5,6.4,6.4,0,0,1-4-1.1,3.13,3.13,0,0,1-1.3-2.5,1.74,1.74,0,0,1,.3-1.4Z" transform="translate(0.02 0.01)"/><path class="cls-1" d="M231.2,222.1h25.4V196.7H231.2v25.4Zm8.5-18.3s-.5,7,4.6,11.1a11.43,11.43,0,0,0,3.1-4.1,6.19,6.19,0,0,1-3.1-5.9c0-4.6,6.8-4,6.8-.4a20.55,20.55,0,0,1-.2,3.5h-2.4a15.44,15.44,0,0,0,.4-3,1.3,1.3,0,0,0-.9-1.4,1.24,1.24,0,0,0-1.4.9h0v.2a4.7,4.7,0,0,0,4.4,5h.1v2a7.72,7.72,0,0,1-1.5-.2c-.2.3-.3.6-.5.9-2,3.2-3.7,4.9-4.4,4.9a1.67,1.67,0,0,1-1.5-.4c-.6-.5-5.6-3.8-5.6-13.2Z" transform="translate(0.02 0.01)"/><path class="cls-1" d="M348.8,196.7H323.3v25.5h25.5Zm-4.3,19a2.14,2.14,0,0,1-2.1,2.2H329.9a2.22,2.22,0,0,1-2.2-2.2h0V203.2a2.22,2.22,0,0,1,2.2-2.2h12.5a2.14,2.14,0,0,1,2.1,2.2h0Z" transform="translate(0.02 0.01)"/><path class="cls-1" d="M340,206.2h1.9a.79.79,0,0,0,.8-.8h0v-1.8a.79.79,0,0,0-.8-.8H340a.79.79,0,0,0-.8.8h0v1.8A.86.86,0,0,0,340,206.2Z" transform="translate(0.02 0.01)"/><path class="cls-1" d="M341.4,209.6a5.26,5.26,0,0,1-10.5,0,6.75,6.75,0,0,1,.2-1.4h-1.5v7.1c0,.4.2.7.6.7H342c.4,0,.7-.2.7-.6h0v-7.1h-1.5a5.85,5.85,0,0,1,.2,1.3Z" transform="translate(0.02 0.01)"/><ellipse class="cls-1" cx="336.13" cy="209.41" rx="3.4" ry="3.3"/><rect class="cls-17" x="367.13" y="236.51" width="25.5" height="25.5"/><path class="cls-1" d="M92.7,222.2h25.5V196.7H92.7Zm12.8-22a9.2,9.2,0,1,1,0,18.4h0a7.46,7.46,0,0,1-2.6-.4,7.22,7.22,0,0,0,.9-2c.1-.4.7-2.5.7-2.5a2.66,2.66,0,0,0,2.2,1.1c3,0,5-2.7,5-6.3a5.55,5.55,0,0,0-5.7-5.3h-.1c-4.4,0-6.6,3.1-6.6,5.8a3.35,3.35,0,0,0,1.9,3.5c.2.1.4,0,.4-.1v-.1a1.85,1.85,0,0,1,.2-.7.44.44,0,0,0-.1-.5,3,3,0,0,1-.6-1.8,4.35,4.35,0,0,1,4.3-4.4h.2c2.5,0,3.8,1.5,3.8,3.5,0,2.7-1.2,4.9-2.9,4.9a1.45,1.45,0,0,1-1.5-1.4h0v-.4a19.81,19.81,0,0,0,.8-3.3,1.24,1.24,0,0,0-1.1-1.4h-.2c-1,0-1.8,1-1.8,2.4a4,4,0,0,0,.3,1.5l-1.2,5a14.92,14.92,0,0,0-.2,2.1,9.1,9.1,0,0,1-4.8-12v-.1A9.59,9.59,0,0,1,105.5,200.2Z" transform="translate(0.02 0.01)"/><path class="cls-1" d="M.5,222.1H25.9V196.7H.5ZM12,208h3.4v-2.9c0-3.3,2-5.1,5-5.1,1,0,2,0,3,.1v3.5H21.3c-1.6,0-1.9.8-1.9,1.9V208h3.9l-.5,3.9H19.4v10h-4v-10H12Z" transform="translate(0.02 0.01)"/><path class="cls-1" d="M185,222.2h25.5V196.7H185Zm8-4.1h-3.6V206.5H193Zm2.3-11.6h3.4v1.6h0a3.9,3.9,0,0,1,3.4-1.9c3.6,0,4.3,2.4,4.3,5.5v6.4h-3.6v-5.6c0-1.3,0-3.1-1.9-3.1s-2.2,1.5-2.2,3v5.7h-3.6l.2-11.6Zm-4.1-5.7a2.1,2.1,0,1,1-2.1,2.1,2.09,2.09,0,0,1,2-2.1Z" transform="translate(0.02 0.01)"/><path class="cls-1" d="M46.6,222.2H72.1V196.7H46.6Zm6.2-11.3c.2,0,.4.1.7.1a2.77,2.77,0,0,0,.9-.1,3.52,3.52,0,0,1-2.8-3.4h0a2.93,2.93,0,0,0,1.6.4,3.41,3.41,0,0,1-1.1-4.7h0a9.72,9.72,0,0,0,7.2,3.6,3.55,3.55,0,0,1,2.4-4.3h0a3.55,3.55,0,0,1,3.5,1.1,8.49,8.49,0,0,0,2.2-.9,3.58,3.58,0,0,1-1.5,1.9,6.64,6.64,0,0,0,2-.6,9.76,9.76,0,0,1-1.7,1.8v.4a9.9,9.9,0,0,1-9.8,9.9h-.1a9.18,9.18,0,0,1-5.3-1.6,2.2,2.2,0,0,1,.8.1,6.63,6.63,0,0,0,4.3-1.5A3,3,0,0,1,52.8,210.9Z" transform="translate(0.02 0.01)"/><path class="cls-1" d="M500.9,37.8l8-8,2.3,2.3-5.7,5.7,5.7,5.7-2.3,2.3Z" transform="translate(0.02 0.01)"/><path class="cls-1" d="M478.1,45.8l-2.3-2.3,5.7-5.7-5.7-5.7,2.3-2.3,8,8Z" transform="translate(0.02 0.01)"/><path class="cls-2" d="M456.8,1.3a3.89,3.89,0,0,1,1.3,3.2v9.1a4.59,4.59,0,0,1-4.6,4.6h-9.1a4.59,4.59,0,0,1-4.6-4.6h0V4.5a4.82,4.82,0,0,1,1.3-3.2A3.89,3.89,0,0,1,444.3,0h9.1A4.67,4.67,0,0,1,456.8,1.3Zm-2,5.4-1-1c-.1-.2-.3-.2-.5,0l-5.1,5.1c-.1.1-.3.2-.4.1l-.1-.1-2.2-2.3a.45.45,0,0,0-.5,0l-1,.9c-.1.1-.1.1-.1.2s0,.2.1.2l2.2,2.4c.1,0,.1.1.2.1l.2.2c0,.1,0,.1.1.1h0l1,1a.45.45,0,0,0,.5,0h0l6.5-6.5c.3,0,.3-.2.1-.4.1.1.1,0,0,0Z" transform="translate(0.02 0.01)"/><path class="cls-18" d="M453.3,30a1.42,1.42,0,0,1,.6.2.48.48,0,0,1,.2.6v9.1a.86.86,0,0,1-.8.8h-9.1a1.42,1.42,0,0,1-.6-.2.48.48,0,0,1-.2-.6V30.7a1.42,1.42,0,0,1,.2-.6.48.48,0,0,1,.6-.2l9.1.1m0-3.8h-9.1a4.57,4.57,0,0,0-4.6,4.5h0v9.1a4.59,4.59,0,0,0,4.6,4.6h9.1a4.59,4.59,0,0,0,4.6-4.6h0V30.7A4.57,4.57,0,0,0,453.3,26.2Z" transform="translate(0.02 0.01)"/><path class="cls-1" d="M517.4,4.4c.1.1.1.3.2.4a.52.52,0,0,1-.2.4L506.5,16.1a.49.49,0,0,1-.7.1h0c-.1,0-.1,0-.1-.1h0l-1.6-1.6-.8-.8-3.7-3.9a1.1,1.1,0,0,1,0-.8l1.6-1.5a.49.49,0,0,1,.7-.1l.1.1,3.7,3.8a.49.49,0,0,0,.7.1h0c.1,0,.1,0,.1-.1h0L515,2.9a.49.49,0,0,1,.7-.1h0l.1.1Z" transform="translate(0.02 0.01)"/><polygon class="cls-1" points="489.93 70.31 489.93 70.31 477.02 56.71 474.13 59.41 484.43 70.31 474.13 81.21 477.02 83.91 489.93 70.31"/><polygon class="cls-1" points="498.93 70.31 498.93 70.31 511.82 56.71 514.73 59.41 504.43 70.31 514.73 81.21 511.82 83.91 498.93 70.31"/><path class="cls-1" d="M99.2,321.8c3.2,0,5.8-3.3,5.8-7.3s-2.6-7.3-5.8-7.3-5.8,3.3-5.8,7.3S96,321.8,99.2,321.8Zm0-13.1c2.3,0,4.2,2.6,4.2,5.8s-1.9,5.8-4.2,5.8-4.2-2.6-4.2-5.8,1.9-5.8,4.2-5.8Z" transform="translate(0.02 0.01)"/><path class="cls-1" d="M88.4,323.1l-1.5,4.6a.88.88,0,0,0,.5,1h23.4a.71.71,0,0,0,.6-.3.88.88,0,0,0,.1-.7l-1.5-4.6a1.21,1.21,0,0,0-.5-.5l-5.4-1.5a.66.66,0,0,0-.6.1l-4.3,2.1-4.3-2.1a1.27,1.27,0,0,0-.6-.1l-5.4,1.5C88.7,322.7,88.6,322.9,88.4,323.1Zm6-.5,4.4,2.2a.85.85,0,0,0,.7,0l4.4-2.2,4.7,1.3,1.1,3.2h-21l1-3.2Z" transform="translate(0.02 0.01)"/><path class="cls-7" d="M378.2,165.8c2.6,0,4.8-2.7,4.8-6.1s-2.1-6.1-4.8-6.1-4.8,2.7-4.8,6.1S375.6,165.8,378.2,165.8Z" transform="translate(0.02 0.01)"/><path class="cls-7" d="M369.3,167.7l-1.3,3.8a.66.66,0,0,0,.1.6.55.55,0,0,0,.5.3h19.2a.58.58,0,0,0,.6-.6h0v-.2l-1.3-3.8c-.1-.2-.2-.4-.4-.4l-4.5-1.3a.45.45,0,0,0-.5,0l-3.5,1.8-3.5-1.8a.45.45,0,0,0-.5,0l-4.5,1.3c-.2,0-.4.1-.4.3Z" transform="translate(0.02 0.01)"/><path class="cls-1" d="M65.9,308.7H62.8v-.8a.77.77,0,0,0-.7-.8H59.8a.79.79,0,0,0-.8.8h0v.8H49.7v-.8a.79.79,0,0,0-.8-.8H46.6a.79.79,0,0,0-.8.8h0v.8H42.7a.79.79,0,0,0-.8.8h0V328a.79.79,0,0,0,.8.8H65.9a.79.79,0,0,0,.8-.8h0V309.5a.79.79,0,0,0-.8-.8Zm-5.4,0h.8v1.5h-.8Zm-13.1,0h.8v1.5h-.8Zm17.7,18.5H43.5v-17h2.3v.8a.79.79,0,0,0,.8.8h2.3a.79.79,0,0,0,.8-.8h0v-.8H59v.8a.79.79,0,0,0,.8.8h2.3a.79.79,0,0,0,.8-.8h0v-.8h2.3Z" transform="translate(0.02 0.01)"/><path class="cls-1" d="M49.7,314.9H46.6a.79.79,0,0,0-.8.8h0v3.1a.79.79,0,0,0,.8.8h3.1a.79.79,0,0,0,.8-.8h0v-3.1a.79.79,0,0,0-.8-.8Zm-.8,3.1H47.4v-1.5h1.5Z" transform="translate(0.02 0.01)"/><path class="cls-1" d="M55.9,314.9H52.8a.79.79,0,0,0-.8.8h0v3.1a.79.79,0,0,0,.8.8h3.1a.79.79,0,0,0,.8-.8h0v-3.1C56.6,315.2,56.3,314.9,55.9,314.9Zm-.8,3.1H53.6v-1.5h1.5Z" transform="translate(0.02 0.01)"/><path class="cls-1" d="M62.1,314.9H59a.79.79,0,0,0-.8.8h0v3.1a.79.79,0,0,0,.8.8h3.1a.79.79,0,0,0,.8-.8h0v-3.1a.79.79,0,0,0-.8-.8Zm-.8,3.1H59.8v-1.5h1.5Z" transform="translate(0.02 0.01)"/><path class="cls-1" d="M49.7,321H46.6a.79.79,0,0,0-.8.8h0v3.1a.79.79,0,0,0,.8.8h3.1a.79.79,0,0,0,.8-.8h0v-3.1a.79.79,0,0,0-.8-.8Zm-.8,3.1H47.4v-1.5h1.5Z" transform="translate(0.02 0.01)"/><path class="cls-1" d="M55.9,321H52.8a.79.79,0,0,0-.8.8h0v3.1a.79.79,0,0,0,.8.8h3.1a.79.79,0,0,0,.8-.8h0v-3.1C56.6,321.4,56.3,321,55.9,321Zm-.8,3.1H53.6v-1.5h1.5Z" transform="translate(0.02 0.01)"/><path class="cls-1" d="M62.1,321H59a.79.79,0,0,0-.8.8h0v3.1a.79.79,0,0,0,.8.8h3.1a.79.79,0,0,0,.8-.8h0v-3.1a.79.79,0,0,0-.8-.8Zm-.8,3.1H59.8v-1.5h1.5Z" transform="translate(0.02 0.01)"/><path class="cls-1" d="M227.1,330.3h14.7a1.45,1.45,0,0,0,1.5-1.4h0V307.2a1.54,1.54,0,0,0-1.5-1.5H227.1a1.54,1.54,0,0,0-1.5,1.5v2.3h-.8a.8.8,0,0,0,0,1.6h.8v1.5h-.8a.8.8,0,1,0,0,1.6h.8v1.5h-.8a.8.8,0,1,0,0,1.6h.8v1.5h-.8a.79.79,0,0,0-.8.8h0a.77.77,0,0,0,.7.8h.8v1.5h-.7a.8.8,0,0,0,0,1.6h.8V325h-.8a.8.8,0,0,0,0,1.6h.8v2.3a1.35,1.35,0,0,0,1.3,1.4h.2Zm14.7-1.5h-3.1V307.2h3.1Zm-14.7-5.4h.8a.8.8,0,0,0,0-1.6h-.8v-1.5h.8a.8.8,0,0,0,0-1.6h-.8v-1.5h.8a.8.8,0,1,0,0-1.6h-.8v-1.5h.8a.8.8,0,0,0,0-1.6h-.8v-1.6h.8a.8.8,0,0,0,0-1.6h-.8V307h10v21.6h-10v-2.3h.8a.8.8,0,0,0,0-1.6h-.8Z" transform="translate(0.02 0.01)"/><path class="cls-1" d="M155.5,307.1,144,308.6l-11.5-1.5a.73.73,0,0,0-.6.2.71.71,0,0,0-.3.6v18.5a.85.85,0,0,0,.7.8l11.6,1.5h.2l11.6-1.5a.85.85,0,0,0,.7-.8V307.9a.71.71,0,0,0-.3-.6,1.07,1.07,0,0,0-.6-.2Zm-22.3,1.7,10,1.3v17l-10-1.3Zm21.6,17-10,1.3v-17l10-1.3Z" transform="translate(0.02 0.01)"/><path class="cls-1" d="M135.4,312.5l6.2.8h.1a.75.75,0,0,0,.1-1.5h0l-6.2-.8a.78.78,0,0,0-.9.6.62.62,0,0,0,.5.8h.1l.1.1Z" transform="translate(0.02 0.01)"/><path class="cls-1" d="M141.8,315.6l-6.2-.8a.76.76,0,1,0-.3,1.5h.2l6.2.8h.1a.85.85,0,0,0,.8-.7A1.09,1.09,0,0,0,141.8,315.6Z" transform="translate(0.02 0.01)"/><path class="cls-1" d="M141.8,319.5l-6.2-.8a.79.79,0,0,0-.8.8h0a.87.87,0,0,0,.6.8h0l6.2.8h.1a.85.85,0,0,0,.8-.7.78.78,0,0,0-.7-.9Z" transform="translate(0.02 0.01)"/><path class="cls-1" d="M141.8,323.4l-6.2-.8a.79.79,0,0,0-.8.8h0a.87.87,0,0,0,.6.8l6.2.8h.1a.85.85,0,0,0,.8-.7.78.78,0,0,0-.7-.9Z" transform="translate(0.02 0.01)"/><path class="cls-1" d="M146.3,313.3h.1l6.2-.8a.89.89,0,0,0,.6-1,.76.76,0,0,0-.8-.6l-6.2.8a.77.77,0,0,0-.7.8c0,.4.4.9.8.8Z" transform="translate(0.02 0.01)"/><path class="cls-1" d="M146.3,317.2h.1l6.2-.8a.8.8,0,1,0,0-1.6h-.2l-6.2.8a.78.78,0,0,0-.6.9.68.68,0,0,0,.7.7Z" transform="translate(0.02 0.01)"/><path class="cls-1" d="M146.3,321h.1l6.2-.8a.89.89,0,0,0,.6-1,.76.76,0,0,0-.8-.6l-6.2.8a1,1,0,0,0-.7.9c.1.5.4.8.8.7Z" transform="translate(0.02 0.01)"/><path class="cls-1" d="M152.4,322.6l-6.2.8a.75.75,0,0,0,.1,1.5h.1l6.2-.8a.75.75,0,1,0-.1-1.5Z" transform="translate(0.02 0.01)"/><path class="cls-1" d="M270.4,369.9h2.5l.4,1.3-2,2a.78.78,0,0,0,0,1.1h0l3.1,3.1a.78.78,0,0,0,1.1,0h0l2-2,1.3.5v2.5a.79.79,0,0,0,.8.8h4.6a.79.79,0,0,0,.8-.8h0v-2.6l1.3-.5,2,2a.78.78,0,0,0,1.1,0l3.1-3.1a.78.78,0,0,0,0-1.1l-2-2,.4-1.3h2.5a.79.79,0,0,0,.8-.8h0v-4.6a.79.79,0,0,0-.8-.8H291l-.4-1.3,2-2a.78.78,0,0,0,0-1.1h0l-3.1-3.1a.78.78,0,0,0-1.1,0h0l-2,2-1.3-.5v-2.4a.79.79,0,0,0-.8-.8h-4.6a.79.79,0,0,0-.8.8h0v2.5l-1.3.5-2-2a.78.78,0,0,0-1.1,0h0l-3.1,3.1a.78.78,0,0,0,0,1.1h0l2,2-.4,1.3h-2.5a.79.79,0,0,0-.8.8h0v4.6c.1.4.3.8.7.8Zm.8-4.6h2.3a.75.75,0,0,0,.7-.5l.8-2.3a.78.78,0,0,0-.2-.8l-1.8-1.8,2-2,1.8,1.8a.78.78,0,0,0,.8.2l2.3-.8a.75.75,0,0,0,.5-.7v-2.3h3.1v2.3a.75.75,0,0,0,.5.7l2.3.8a.78.78,0,0,0,.8-.2l1.8-1.8,2,2-1.8,1.8a.78.78,0,0,0-.2.8l.8,2.3a.75.75,0,0,0,.7.5h2.3v3.1h-2.3a.75.75,0,0,0-.7.5l-.8,2.3a.78.78,0,0,0,.2.8l1.8,1.8-2,2-1.8-1.8a.78.78,0,0,0-.8-.2l-2.3.8a.75.75,0,0,0-.5.7v2.3h-3.1v-2.3a.75.75,0,0,0-.5-.7l-2.3-.8a.78.78,0,0,0-.8.2l-1.8,1.8-2-2,1.8-1.8a.78.78,0,0,0,.2-.8l-.8-2.3a.75.75,0,0,0-.7-.5h-2.3Z" transform="translate(0.02 0.01)"/><path class="cls-1" d="M282,369.9a3.1,3.1,0,1,0-3.1-3.1A3.12,3.12,0,0,0,282,369.9Zm0-4.6a1.55,1.55,0,1,1-1.5,1.6h0A1.71,1.71,0,0,1,282,365.3Z" transform="translate(0.02 0.01)"/><path class="cls-1" d="M12.6,314.5a3.1,3.1,0,1,0-3.1,3.1h0A3.12,3.12,0,0,0,12.6,314.5Zm-4.6,0a1.62,1.62,0,0,1,1.4-1.6h.1a1.55,1.55,0,0,1,.1,3.1H9.5A1.61,1.61,0,0,1,8,314.5Z" transform="translate(0.02 0.01)"/><path class="cls-1" d="M9.5,330.3a.71.71,0,0,0,.6-.3c.3-.4,8.3-9.5,8.3-15.6a8.9,8.9,0,0,0-17.8,0h0c0,6,7.9,15.2,8.3,15.6A.86.86,0,0,0,9.5,330.3Zm0-23.2a7.34,7.34,0,0,1,7.3,7.3v.1c0,4.6-5.5,11.6-7.4,13.9-1.8-2.2-7.3-9.3-7.3-13.9a7.38,7.38,0,0,1,7.4-7.4Z" transform="translate(0.02 0.01)"/><path class="cls-1" d="M110.9,360.5H86a.79.79,0,0,0-.8.8h0v15a.79.79,0,0,0,.8.8h25a.79.79,0,0,0,.8-.8h0v-15A.82.82,0,0,0,110.9,360.5Zm-2.6,1.7-9.8,6.1-9.8-6.1ZM86.8,375.5V363l11.7,7.2,11.6-7.2v12.5Z" transform="translate(0.02 0.01)"/><path class="cls-1" d="M143.8,365.5a.79.79,0,0,0-.8.8h0v11.3l-1.9-1.9a.91.91,0,0,0-1.2,0h0a.78.78,0,0,0,0,1.1l3.3,3.3a.91.91,0,0,0,1.2,0h0l3.3-3.3a.85.85,0,0,0-1.1-1.3h0l-.1.1-1.9,1.9V366.2A.77.77,0,0,0,143.8,365.5Z" transform="translate(0.02 0.01)"/><path class="cls-1" d="M156.3,357.2h-25a.79.79,0,0,0-.8.8h0v15a.79.79,0,0,0,.8.8h9.1a.8.8,0,0,0,0-1.6h-8.3V358.9h23.3v13.3h-8.3a.8.8,0,1,0,0,1.6h9.1a.79.79,0,0,0,.8-.8h0V358c.1-.4-.2-.7-.7-.8Z" transform="translate(0.02 0.01)"/><path class="cls-1" d="M13.3,355.5a13.32,13.32,0,1,0,9.4,3.9A13.36,13.36,0,0,0,13.3,355.5Zm8.2,21.6a11.67,11.67,0,1,1,.1-16.5h0a11.65,11.65,0,0,1,0,16.4Z" transform="translate(0.02 0.01)"/><path class="cls-1" d="M17.4,368.5l-3.3-8.3a1,1,0,0,0-1.1-.5,1.21,1.21,0,0,0-.5.5l-3.3,8.3a.64.64,0,0,0,0,.6h0l3.3,8.3a1,1,0,0,0,1.1.5,1.21,1.21,0,0,0,.5-.5l3.3-8.3h0A.64.64,0,0,0,17.4,368.5Zm-4.1-5.7,2.1,5.2H11.2Zm0,12.1-2.1-5.2h4.2Z" transform="translate(0.02 0.01)"/><path class="cls-1" d="M41.2,378h5v3.3a.79.79,0,0,0,.8.8H60.3a.79.79,0,0,0,.8-.8h0V378h5a.79.79,0,0,0,.8-.8h0V363.9a.79.79,0,0,0-.8-.8h-5v-6.6a.79.79,0,0,0-.8-.8H47a.79.79,0,0,0-.8.8h0v6.6h-5a.79.79,0,0,0-.8.8h0v13.3c-.1.4.3.7.8.8Zm18.3,2.5H47.8v-8.3H59.4ZM47.8,357.2H59.5V363H47.8ZM42,364.7H65.3v11.6H61.1v-5a.79.79,0,0,0-.8-.8H47a.79.79,0,0,0-.8.8h0v5H42Z" transform="translate(0.02 0.01)"/><path class="cls-1" d="M45.1,366.2a.91.91,0,0,0-1.2,0,.73.73,0,0,0-.2.6,1.42,1.42,0,0,0,.2.6.91.91,0,0,0,1.2,0h0A.91.91,0,0,0,45.1,366.2Z" transform="translate(0.02 0.01)"/><path class="cls-1" d="M47,367.6a1.42,1.42,0,0,0,.6-.2.73.73,0,0,0,.2-.6,1.42,1.42,0,0,0-.2-.6.91.91,0,0,0-1.2,0,.73.73,0,0,0-.2.6,1.42,1.42,0,0,0,.2.6A1.42,1.42,0,0,0,47,367.6Z" transform="translate(0.02 0.01)"/><path class="cls-1" d="M57.8,373.8H49.5a.8.8,0,1,0,0,1.6h8.3a.86.86,0,0,0,.8-.8.79.79,0,0,0-.8-.8Z" transform="translate(0.02 0.01)"/><path class="cls-1" d="M57.8,377.2H49.5a.8.8,0,1,0,0,1.6h8.3a.79.79,0,0,0,.8-.8h0a.79.79,0,0,0-.8-.8Z" transform="translate(0.02 0.01)"/><polygon class="cls-2" points="12.82 560.51 20.02 565.31 12.82 570.01 12.82 560.51"/><path class="cls-1" d="M53,577.3a15.13,15.13,0,1,1,21.4,0A15.15,15.15,0,0,1,53,577.3Zm19.4-19.4a12.23,12.23,0,1,0,.2.2Z" transform="translate(0.02 0.01)"/><polygon class="cls-1" points="61.33 561.91 68.63 566.61 61.33 571.41 61.33 561.91"/><polygon class="cls-6" points="369.93 113.81 387.82 124.31 369.93 134.71 369.93 113.81"/><rect class="cls-6" x="418.13" y="116.81" width="3.6" height="16.4"/><path d="M453.2,129.5h3.6l5.6,5.6a.62.62,0,0,0,.7.1.68.68,0,0,0,.4-.6V115.3a.68.68,0,0,0-.4-.6.88.88,0,0,0-.7.1l-5.6,5.6h-3.6a.58.58,0,0,0-.6.6h0v7.7a.68.68,0,0,0,.4.8Zm.6-7.7H457c.2,0,.3-.1.5-.2l4.7-4.7v16.2l-4.7-4.7a.76.76,0,0,0-.5-.2h-3.2Z" transform="translate(0.02 0.01)"/><path d="M464.9,128.3a.61.61,0,0,0,.8.1l.1-.1h0l2.4-2.4,2.4,2.4a.61.61,0,0,0,.8.1l.1-.1c.2-.3.3-.7,0-.9l-2.4-2.4,2.4-2.4a.61.61,0,0,0,.1-.8l-.1-.1c-.3-.2-.7-.3-.9,0l-2.4,2.4-2.4-2.4a.64.64,0,1,0-1,.8l.1.1,2.4,2.4-2.4,2.4A.75.75,0,0,0,464.9,128.3Z" transform="translate(0.02 0.01)"/><path d="M500.7,129.5h3.6l5.6,5.6a.76.76,0,0,0,.5.2.58.58,0,0,0,.6-.6h0V115.3a.68.68,0,0,0-.4-.6.88.88,0,0,0-.7.1l-5.6,5.6h-3.6a.58.58,0,0,0-.6.6h0v7.7C500.1,129.2,500.3,129.5,500.7,129.5Zm.7-7.7h3.2c.2,0,.3-.1.5-.2l4.7-4.7v16.2l-4.7-4.7a.76.76,0,0,0-.5-.2h-3.2Z" transform="translate(0.02 0.01)"/><path d="M512.9,127.5a.6.6,0,0,0,0,1.2,3.91,3.91,0,0,0,0-7.8.58.58,0,0,0-.6.6h0a.65.65,0,0,0,.6.6h0a2.56,2.56,0,0,1,2.4,2.7,2.48,2.48,0,0,1-2.2,2.7h-.2Z" transform="translate(0.02 0.01)"/><path d="M545.4,129.5H549l5.6,5.6a.62.62,0,0,0,.7.1.68.68,0,0,0,.4-.6V115.3a.68.68,0,0,0-.4-.6.88.88,0,0,0-.7.1l-5.6,5.6h-3.6a.58.58,0,0,0-.6.6h0v7.7C544.8,129.2,545.1,129.5,545.4,129.5Zm.6-7.7h3.2c.2,0,.3-.1.5-.2l4.7-4.7v16.2l-4.7-4.7a.76.76,0,0,0-.5-.2H546Z" transform="translate(0.02 0.01)"/><path d="M557.6,127.5a.6.6,0,0,0,0,1.2h0a3.91,3.91,0,0,0,0-7.8.58.58,0,0,0-.6.6h0a.65.65,0,0,0,.6.6h0a2.7,2.7,0,0,1,2.4,3h0A2.58,2.58,0,0,1,557.6,127.5Z" transform="translate(0.02 0.01)"/><path d="M557.6,132a7.1,7.1,0,1,0,0-14.2h0a.6.6,0,0,0,0,1.2h0a5.8,5.8,0,0,1,0,11.6c-.4,0-.7.2-.7.6,0,.6.3.9.7.8Z" transform="translate(0.02 0.01)"/><path class="cls-1" d="M550.1,73.5a7.6,7.6,0,1,1,7.6,7.6h0A7.6,7.6,0,0,1,550.1,73.5Zm1.7,0a5.9,5.9,0,1,0,5.9-5.9h0A6.12,6.12,0,0,0,551.8,73.5Z" transform="translate(0.02 0.01)"/><rect class="cls-1" x="546.1" y="80.24" width="7.6" height="1.9" transform="translate(103.25 412.06) rotate(-44.93)"/><rect class="cls-1" x="166.72" y="496.31" width="13.6" height="2.6"/><rect class="cls-1" x="177.72" y="496.31" width="2.6" height="13.6"/><rect class="cls-1" x="166.58" y="501.93" width="13.6" height="2.6" transform="translate(-305.06 270.07) rotate(-45.01)"/><rect class="cls-19" x="206.79" y="499.41" width="7.5" height="1.9" transform="translate(-292.12 295.44) rotate(-45)"/><rect class="cls-19" x="213.57" y="496.5" width="1.9" height="7.5" transform="translate(-290.88 298.22) rotate(-45)"/><rect class="cls-19" x="211.63" y="499.01" width="1.9" height="9.7"/><rect class="cls-20" x="262.78" y="496.9" width="12.4" height="3.1" transform="translate(-273.65 336.2) rotate(-45)"/><rect class="cls-20" x="273.99" y="492.32" width="3.1" height="12.4" transform="translate(-271.78 340.86) rotate(-45)"/><rect class="cls-20" x="270.82" y="496.31" width="3.1" height="15.9"/><rect class="cls-1" x="238.88" y="498.8" width="8.7" height="2.2" transform="translate(-282.22 318.42) rotate(-45)"/><rect class="cls-1" x="246.69" y="495.52" width="2.2" height="8.7" transform="translate(-280.86 321.64) rotate(-45)"/><rect class="cls-1" x="244.52" y="498.41" width="2.2" height="11.2"/><rect class="cls-2" x="117.43" y="496.31" width="13.6" height="2.6"/><rect class="cls-2" x="128.42" y="496.31" width="2.6" height="13.6"/><rect class="cls-1" x="64.31" y="491.41" width="2.6" height="13.6" transform="translate(-333.16 192.47) rotate(-45.02)"/><rect class="cls-1" x="58.82" y="504.52" width="13.6" height="2.6" transform="translate(-338.42 194.56) rotate(-45)"/><path class="cls-21" d="M706.6.6l1,.2-8.5,30.9-1-.2Z" transform="translate(0.02 0.01)"/><line class="cls-22" x1="422.32" y1="580.31" x2="456.32" y2="452.21"/><line class="cls-22" x1="425.82" y1="580.31" x2="459.82" y2="452.21"/><line class="cls-22" x1="429.32" y1="580.31" x2="463.32" y2="452.21"/><line class="cls-22" x1="432.82" y1="580.31" x2="466.92" y2="452.21"/><line class="cls-22" x1="436.32" y1="580.31" x2="470.42" y2="452.21"/><line class="cls-22" x1="439.82" y1="580.31" x2="473.92" y2="452.21"/><line class="cls-22" x1="443.32" y1="580.31" x2="477.42" y2="452.21"/><line class="cls-22" x1="446.82" y1="580.31" x2="480.92" y2="452.21"/><line class="cls-22" x1="450.32" y1="580.31" x2="484.42" y2="452.21"/><line class="cls-22" x1="453.92" y1="580.31" x2="487.92" y2="452.21"/><line class="cls-22" x1="457.42" y1="580.31" x2="491.42" y2="452.21"/><line class="cls-22" x1="460.92" y1="580.31" x2="494.92" y2="452.21"/><line class="cls-22" x1="464.42" y1="580.31" x2="498.42" y2="452.21"/><line class="cls-22" x1="467.92" y1="580.31" x2="502.02" y2="452.21"/><line class="cls-22" x1="471.42" y1="580.31" x2="505.52" y2="452.21"/><line class="cls-22" x1="474.92" y1="580.31" x2="509.02" y2="452.21"/><line class="cls-22" x1="478.42" y1="580.31" x2="512.52" y2="452.21"/><line class="cls-22" x1="481.92" y1="580.31" x2="516.02" y2="452.21"/><line class="cls-22" x1="485.42" y1="580.31" x2="519.52" y2="452.21"/><line class="cls-22" x1="489.02" y1="580.31" x2="523.02" y2="452.21"/><line class="cls-22" x1="492.52" y1="580.31" x2="526.52" y2="452.21"/><line class="cls-22" x1="496.02" y1="580.31" x2="530.02" y2="452.21"/><line class="cls-22" x1="499.52" y1="580.31" x2="533.52" y2="452.21"/><line class="cls-22" x1="503.02" y1="580.31" x2="537.12" y2="452.21"/><line class="cls-22" x1="506.52" y1="580.31" x2="540.62" y2="452.21"/><line class="cls-22" x1="510.02" y1="580.31" x2="544.12" y2="452.21"/><line class="cls-22" x1="513.52" y1="580.31" x2="547.62" y2="452.21"/><line class="cls-22" x1="517.02" y1="580.31" x2="551.12" y2="452.21"/><line class="cls-22" x1="520.62" y1="580.31" x2="554.62" y2="452.21"/><line class="cls-22" x1="524.12" y1="580.31" x2="558.12" y2="452.21"/><line class="cls-22" x1="527.62" y1="580.31" x2="561.62" y2="452.21"/><line class="cls-22" x1="531.12" y1="580.31" x2="565.12" y2="452.21"/><line class="cls-22" x1="534.62" y1="580.31" x2="568.73" y2="452.21"/><line class="cls-22" x1="538.12" y1="580.31" x2="572.23" y2="452.21"/><line class="cls-22" x1="541.62" y1="580.31" x2="575.73" y2="452.21"/><line class="cls-22" x1="545.12" y1="580.31" x2="579.23" y2="452.21"/><line class="cls-22" x1="548.62" y1="580.31" x2="582.73" y2="452.21"/><line class="cls-22" x1="552.12" y1="580.31" x2="586.23" y2="452.21"/><line class="cls-22" x1="555.73" y1="580.31" x2="589.73" y2="452.21"/><line class="cls-22" x1="559.23" y1="580.31" x2="593.23" y2="452.21"/><line class="cls-22" x1="562.73" y1="580.31" x2="596.73" y2="452.21"/><line class="cls-22" x1="566.23" y1="580.31" x2="600.23" y2="452.21"/><line class="cls-22" x1="569.73" y1="580.31" x2="603.82" y2="452.21"/><line class="cls-22" x1="573.23" y1="580.31" x2="607.32" y2="452.21"/><line class="cls-22" x1="576.73" y1="580.31" x2="610.82" y2="452.21"/><line class="cls-22" x1="580.23" y1="580.31" x2="614.32" y2="452.21"/><line class="cls-22" x1="583.73" y1="580.31" x2="617.82" y2="452.21"/><line class="cls-22" x1="587.23" y1="580.31" x2="621.32" y2="452.21"/><line class="cls-22" x1="590.82" y1="580.31" x2="624.82" y2="452.21"/><line class="cls-22" x1="594.32" y1="580.31" x2="628.32" y2="452.21"/><line class="cls-22" x1="597.82" y1="580.31" x2="631.82" y2="452.21"/><line class="cls-22" x1="601.32" y1="580.31" x2="635.32" y2="452.21"/><line class="cls-22" x1="604.82" y1="580.31" x2="638.93" y2="452.21"/><line class="cls-22" x1="608.32" y1="580.31" x2="642.43" y2="452.21"/><line class="cls-22" x1="611.82" y1="580.31" x2="645.93" y2="452.21"/><line class="cls-22" x1="615.32" y1="580.31" x2="649.43" y2="452.21"/><line class="cls-22" x1="618.82" y1="580.31" x2="652.93" y2="452.21"/><line class="cls-22" x1="622.32" y1="580.31" x2="656.43" y2="452.21"/><line class="cls-22" x1="625.93" y1="580.31" x2="659.93" y2="452.21"/><line class="cls-22" x1="629.43" y1="580.31" x2="663.43" y2="452.21"/><line class="cls-22" x1="632.93" y1="580.31" x2="666.93" y2="452.21"/><line class="cls-22" x1="636.43" y1="580.31" x2="670.43" y2="452.21"/><line class="cls-22" x1="639.93" y1="580.31" x2="674.02" y2="452.21"/><line class="cls-22" x1="643.43" y1="580.31" x2="677.52" y2="452.21"/><line class="cls-22" x1="646.93" y1="580.31" x2="681.02" y2="452.21"/><line class="cls-22" x1="650.43" y1="580.31" x2="684.52" y2="452.21"/><line class="cls-22" x1="653.93" y1="580.31" x2="688.02" y2="452.21"/><line class="cls-22" x1="657.43" y1="580.31" x2="691.52" y2="452.21"/><line class="cls-22" x1="661.02" y1="580.31" x2="695.02" y2="452.21"/><line class="cls-22" x1="664.52" y1="580.31" x2="698.52" y2="452.21"/><line class="cls-22" x1="668.02" y1="580.31" x2="702.02" y2="452.21"/><line class="cls-22" x1="671.52" y1="580.31" x2="705.52" y2="452.21"/><polygon class="cls-1" points="482.13 8.71 482.13 8.71 488.02 2.51 486.32 0.91 480.52 7.01 474.73 0.91 473.02 2.51 478.93 8.71 478.93 8.71 478.93 8.71 473.02 14.91 474.73 16.51 480.52 10.41 486.32 16.51 488.02 14.91 482.13 8.71"/><rect class="cls-23" x="436.28" y="76.82" width="25.9" height="1.5" transform="translate(76.75 340.38) rotate(-45)"/><rect class="cls-23" x="448.48" y="64.61" width="1.5" height="25.9" transform="translate(76.76 340.39) rotate(-45)"/><path class="cls-1" d="M384.9,256.3a6,6,0,0,1-1.9.6,11,11,0,0,1-1.8.2,4.67,4.67,0,0,1-1.7-.3,3.92,3.92,0,0,1-1.4-.8,2.84,2.84,0,0,1-.8-1.1,3.21,3.21,0,0,1-.2-1.7v-5.6H375v-2.2a4.22,4.22,0,0,0,2.9-2.3,4.55,4.55,0,0,0,.5-2h2.2v3.6h3.6v2.8h-3.6v4.1a9.7,9.7,0,0,0,.1,1.7,1.34,1.34,0,0,0,.6.7,2.66,2.66,0,0,0,1.2.3,4.07,4.07,0,0,0,2.4-.8v2.8Z" transform="translate(0.02 0.01)"/><path class="cls-1" d="M367.1,196.7v25.5h25.5V196.7Zm17.8,19.8a13.36,13.36,0,0,1-1.8.7,11,11,0,0,1-1.8.2,4.67,4.67,0,0,1-1.7-.3,3.92,3.92,0,0,1-1.4-.8,2.84,2.84,0,0,1-.8-1.1,3.21,3.21,0,0,1-.2-1.7v-5.6h-2.1v-2.2a4.22,4.22,0,0,0,2.9-2.3,4.55,4.55,0,0,0,.5-2h2.2v3.7h3.6v2.8h-3.6V212a9.7,9.7,0,0,0,.1,1.7,1.34,1.34,0,0,0,.6.7,2.66,2.66,0,0,0,1.2.3,4.07,4.07,0,0,0,2.4-.8l-.1,2.6Z" transform="translate(0.02 0.01)"/><circle class="cls-24" cx="391.02" cy="35.31" r="8"/><circle class="cls-25" cx="391.02" cy="10.51" r="8"/><circle class="cls-24" cx="415.32" cy="35.31" r="8"/><circle class="cls-25" cx="415.32" cy="10.51" r="8"/><circle class="cls-2" cx="415.32" cy="10.51" r="2.8"/><circle class="cls-18" cx="415.32" cy="35.31" r="2.8"/><polygon id="polygon3855" class="cls-19" points="632.92 236.41 478.73 236.41 466.73 280.41 632.92 280.41 632.92 236.41"/><polygon id="polygon3857" class="cls-6" points="466.73 398.01 616.63 398.01 620.83 390.21 466.73 390.21 466.73 398.01"/><polygon id="polygon3857-2" class="cls-6" points="467.02 417.31 549.73 417.31 552.02 412.91 467.02 412.91 467.02 417.31"/><polygon id="polygon3859" class="cls-26" points="614.23 303.71 478.73 303.71 466.73 347.71 614.23 347.71 614.23 303.71"/><polygon id="polygon4033" class="cls-27" points="632.92 236.41 591.02 236.41 576.92 280.41 632.92 280.41 632.92 236.41"/><polygon id="polygon4035" class="cls-28" points="593.33 236.41 591.02 236.41 576.92 280.41 579.33 280.41 593.33 236.41"/><path class="cls-1" d="M294.6,309.8h-1v-1.5h-5v1.5h-2v-2.9a1.58,1.58,0,0,0-1.6-1.6h-7.8a1.58,1.58,0,0,0-1.6,1.6h0v2.9h-2v-1.5h-5v1.5h-1a1.54,1.54,0,0,0-1.5,1.5h0v18.1a1.54,1.54,0,0,0,1.5,1.5h27.1a1.54,1.54,0,0,0,1.5-1.5h0V311.3A1.56,1.56,0,0,0,294.6,309.8Zm-5-.5h3v.5h-3Zm-13-2.4a.65.65,0,0,1,.6-.6H285a.65.65,0,0,1,.6.6v2.9h-9Zm-1,3.9h15.6v19.1H271V310.8Zm-6-1.5h3v.5h-3ZM267,329.4V311.3c0-.2.2-.5.4-.5h2.5v19.1h-2.5A.66.66,0,0,1,267,329.4Zm28.1,0c0,.2-.2.5-.4.5h-2.6V310.8h2.5c.2,0,.5.2.5.4h0v.1h0Z" transform="translate(0.02 0.01)"/></g><path class="cls-29" d="M197.4,372.4H187.3a3.08,3.08,0,0,1-3-3v-9.8a3.08,3.08,0,0,1,3-3h10.1a3.08,3.08,0,0,1,3,3v9.8a3,3,0,0,1-3,3Z" transform="translate(0.02 0.01)"/><path class="cls-29" d="M194.5,374.2v1a3.08,3.08,0,0,1-3,3H181.4a3.08,3.08,0,0,1-3-3v-9.8a3,3,0,0,1,3-3h1" transform="translate(0.02 0.01)"/><rect class="cls-1" x="553.28" y="189.82" width="25.9" height="1.5" transform="translate(31.12 456.22) rotate(-45)"/><rect class="cls-1" x="565.48" y="177.62" width="1.5" height="25.9" transform="translate(31.12 456.22) rotate(-45)"/><polygon class="cls-2" points="292.13 501.71 300.93 493.01 303.13 495.21 292.02 506.21 292.13 501.71"/><polygon class="cls-2" points="298.73 495.21 300.93 493.01 309.73 501.71 309.73 506.11 298.73 495.21"/><rect class="cls-2" x="299.42" y="496.31" width="3.1" height="18.7"/></g><path class="cls-30" d="M135.4,60.6c.1-.2.1-.7.2-.7a20.25,20.25,0,0,1,3.3-.9c4.1-.1,8.2,0,12.4,0,.1.6.3,1.1.4,1.6a5.91,5.91,0,0,0,5.7,4.1,9.2,9.2,0,0,0,7.4-3.3,10.09,10.09,0,0,0,.7-1.5l.1-.1h-.1v.1a15.53,15.53,0,0,1-3.7.4,2.58,2.58,0,0,1-2.2-2.9,3.1,3.1,0,0,1,.6-1.3,5.31,5.31,0,0,1,5.2-2.4,7.91,7.91,0,0,1,7.3,5,1.3,1.3,0,0,0,1.4.9h2.7c1-6-1.9-13.6-8.6-15a12.86,12.86,0,0,0-10.8,2.8,46.81,46.81,0,0,0-4.3,4.6,1.9,1.9,0,0,1-1.1.7c-4,0-8.1,0-12.1-.2a17.1,17.1,0,0,1-3-.9c4.6,0,9.2,0,13.8.1a2.14,2.14,0,0,0,1.7-.8,37.81,37.81,0,0,1,4.9-4.9,14.19,14.19,0,0,1,10.1-3.1c4.8.3,7.7,3,9.4,7.3.6,1.7,1.1,3.4,1.7,5l.5,3.3-.1,1h3a1,1,0,0,0,.8-.5c2.3-4.8,5.8-8.7,9.2-12.7a30.41,30.41,0,0,0,3.9-5.5c1.9-3.5,1.6-7.1.2-10.6s-3.1-7.2-4.7-10.8c-1,1.2-2.1,2.4-3.1,3.7a30,30,0,0,1-20.8,11.3,147.12,147.12,0,0,1-14.8,1c-8.8.2-17.6.1-26.4,0a28.67,28.67,0,0,1-5.7-1.1c-.2,0-.4-.4-.7-.5,3.3.1,6.6.2,9.9.2h22.8a79.11,79.11,0,0,0,16.1-1.5c5.1-1,10.2-2.4,14.1-6.1,2.9-2.7,5.4-5.7,8.1-8.6a8.64,8.64,0,0,1,1.3-1.4c1.8,4.4,3.7,8.7,5.4,13.1a22.27,22.27,0,0,1,1.2,5.1c.3,3.5-1.2,6.5-3.1,9.3-.2.3-.4.7-.6,1l.2.3.9-.3c1.3-.5,2.5-1,3.8-1.4a14.25,14.25,0,0,1,6.5-.3c4.1.8,7.7,4.5,7,10.8s-7.6,13.1-14.6,12.2c-.5-.1-1-.1-1.7-.2,1.4,1.9,1.7,3,1.4,4.4a10.4,10.4,0,0,1-8.5,8.8,41.7,41.7,0,0,1-5,0,31.8,31.8,0,0,1-12.5,13.2,1.27,1.27,0,0,1-1.8-.1l-.1-.1a14.43,14.43,0,0,1-4.6-8.1c-.3-1.4-.4-2.8-.6-4.4l-44.7.3c1.5-1.3,3.4-1.5,5.2-1.9a29.66,29.66,0,0,1,4.2-.3c10.4,0,20.7-.1,31.1,0a12.87,12.87,0,0,0,11.4-6c.8-1.2,1.5-2.4,2.4-3.9h-3.5c-.3,0-.6.4-1,.6a33.36,33.36,0,0,1-4,2.5,2,2,0,0,1-2.7-.8,2.3,2.3,0,0,1,1.2-2.7,10.09,10.09,0,0,1,1.5-.7c-1.7-1.1-4.1-.8-6.1,1a12.34,12.34,0,0,0-2.2,2.9,1.3,1.3,0,0,1-1.2.8c-11,0-22,.1-33-.1-2.3,0-4.6-.9-6.8-1.5-.6-.2-.7-.4-.5-.9a12.82,12.82,0,0,0,2.7.5h36.8a2.77,2.77,0,0,0,.9-.1c1-1.1,1.9-2.2,3-3.5h-2.6c-3.9,0-6.3-1.7-7.4-5.5a1.45,1.45,0,0,0-1-.7c-3.4,0-6.9-.1-10.3,0Zm48.3-.9c2.6.3,4.6.4,6-1.7a4.07,4.07,0,0,1,1.4-1.2c2.6-1.8,5.4-3.2,8.7-3a3.08,3.08,0,0,1,2.8,1.8,2.35,2.35,0,0,1-.9,2.9,7.26,7.26,0,0,1-3.1,1.7,10.18,10.18,0,0,1-3.5-.3,3.91,3.91,0,0,0,2.9,4.5,7.87,7.87,0,0,0,4.8.1A12.67,12.67,0,0,0,211.9,54c.6-5.2-2.4-8.6-6-9.4a11.64,11.64,0,0,0-6.4.3,23.73,23.73,0,0,0-12.1,9C186.1,55.7,185.1,57.6,183.7,59.7Zm-3.6,8.1h-2.4a1.83,1.83,0,0,0-1.9,1.2,18.47,18.47,0,0,1-8,9,1.56,1.56,0,0,0-.6.8,14.66,14.66,0,0,0,4.3,11.9,1.29,1.29,0,0,0,1.2.1A28.62,28.62,0,0,0,183.5,79a1.72,1.72,0,0,0-.2-1.2,8.28,8.28,0,0,1-2.9-5.2c-.2-1.5-.2-3.1-.3-4.8Zm10.3-.6c1,.2,1.9.6,1.8,1.8a2.46,2.46,0,0,1-1.9,2.2,3.34,3.34,0,0,1-4-1.8,2.12,2.12,0,0,0-2.5-1.3h-1.1c-.8-.1-1.2.2-1.1,1.1.1,1.1.1,2.2.3,3.3a6.34,6.34,0,0,0,3.8,5c4.4,1.8,10.1-1.1,11.2-5.7.5-2.1,0-3.7-1.4-4.7A4.36,4.36,0,0,0,190.4,67.2ZM180,61.3h-7.3a3.25,3.25,0,0,0-3.2,2.1,2,2,0,0,0,.6,2.7,2.77,2.77,0,0,0,1.3.3h14.7a3.53,3.53,0,0,0,3.1-1.8c1-1.8.2-3.2-1.9-3.2Zm-12.3,4a4.93,4.93,0,0,1,3-4.8c.6-.3.7-.6.4-1.2a7.08,7.08,0,0,0-5.4-3.9c-1.3-.2-2.6-.3-3.6.7-.4.4-.9,1.2-.7,1.5a2.62,2.62,0,0,0,1.6,1.3,5.42,5.42,0,0,0,2.5-.6,13.5,13.5,0,0,0,2.6-1.5l.3.2a20.88,20.88,0,0,1-1.7,4.1,26,26,0,0,1-3,3.6Zm26.7-8.8c.8.7,1.4,1.2,2.1,1.8a2.72,2.72,0,0,0,3.5.2c.5-.4,1.2-1.3,1.1-1.8a2.26,2.26,0,0,0-1.7-1.3c-4.1-.3-7.2,1.8-9.9,4.6,2,1.6,2.1,2.3.9,5.4l4.8-.6c-2.6-2.5-1.5-5.3-.8-8.3ZM167.9,69.1l-.1-.5a7.39,7.39,0,0,0-2.1,0c-.2.1-.4.6-.6.9.3.1.6.4.9.4C166.7,69.6,167.3,69.4,167.9,69.1Zm20.4-.4-.1.5a13.36,13.36,0,0,0,1.8.7c.3.1.6-.3.9-.4-.2-.3-.4-.8-.7-.8A6.05,6.05,0,0,0,188.3,68.7Z" transform="translate(0.02 0.01)"/><path class="cls-31" d="M119.7,33.5a10.93,10.93,0,0,1,6-1.9c1.9-.2,3.9-.2,5.9-.3,8.5-.1,17,0,25.5-.3a83,83,0,0,0,12.2-1.5c5.8-.9,10.4-4.1,14.1-8.5,3.2-3.8,6.5-7.6,9.8-11.3l.9-1c.4,1.4.8,2.7,1.2,4a81.41,81.41,0,0,0,5.1,13.5c1.9,4.2,2.6,8.6,1.1,13.2a36.85,36.85,0,0,1,4.7,0c7.1.8,11.4,6,10.8,13.3-.6,7-4.5,11.8-10.4,15.2-1.3.8-3.2.8-4.1,1.8s-.8,2.8-1.4,4.2a15.59,15.59,0,0,1-13.2,9.2,2.25,2.25,0,0,0-2.1,1.2,38.29,38.29,0,0,1-15.4,13.1,18.38,18.38,0,0,1-8.5-14.2h-1.3c-8.8,0-17.6.1-26.4.1a39.4,39.4,0,0,1-7.7-.7,34.88,34.88,0,0,1-5.7-2c1.2,0,2.4.1,3.6.1h40.5c.1.8.1,1.5.2,2.2a16.06,16.06,0,0,0,5.6,10.4,1.25,1.25,0,0,0,1.7.2A33.41,33.41,0,0,0,185,80.8a1,1,0,0,1,1.3-.7h.1a9.84,9.84,0,0,0,6.1-.8c4.3-1.8,8.2-6.8,6.3-12.1,1.1,0,2.2-.1,3.3-.2a14.85,14.85,0,0,0,11.6-11c2.3-8.1-3.3-14.5-11.7-13.4a47,47,0,0,0-5.1,1.2,59.49,59.49,0,0,0,2.2-5.9c.9-3.5-.1-6.7-1.5-9.9s-2.6-6.2-3.9-9.3a23.76,23.76,0,0,1-1.1-3.8c-2.4,2.7-4.8,5.2-7,7.9a25.53,25.53,0,0,1-14.1,8.5,75,75,0,0,1-17.6,2.1C142.5,33.3,131.1,33.4,119.7,33.5Z" transform="translate(0.02 0.01)"/><path class="cls-32" d="M179,58.6c-.1-1.1-.3-2.2-.5-3.3a29.71,29.71,0,0,0-.8-4.3c-2-6.5-6.6-9.5-13.3-8.6-5.3.7-9.2,3.6-12.3,7.7a2,2,0,0,1-2,1c-4.2,0-8.4.1-12.6.2-.3,0-.5-.1-.8-.1a15.7,15.7,0,0,1,8-1.5c2.6.1,4.7-.2,6-2.8a10,10,0,0,1,2.2-2.4l2.6-1.9,1-.5-.1-.2h-16c-4.2,0-8.4.2-12.7.3a21.58,21.58,0,0,1,3.4-1.7,39.6,39.6,0,0,1,7.7-1c9.1-.1,18.3-.1,27.4,0,6.2,0,10.9,4.2,12.5,10.8A16.7,16.7,0,0,1,179,58.6Z" transform="translate(0.02 0.01)"/><path class="cls-33" d="M119.7,33.5c11.4-.1,22.8-.1,34.2-.3a75,75,0,0,0,17.6-2.1,25.53,25.53,0,0,0,14.1-8.5c2.2-2.6,4.6-5.2,7-7.9.4,1.3.6,2.6,1.1,3.8,1.2,3.1,2.6,6.2,3.9,9.3s2.4,6.4,1.5,9.9a41.88,41.88,0,0,1-2.2,5.9,47,47,0,0,1,5.1-1.2c8.4-1.1,14,5.3,11.7,13.4a15.29,15.29,0,0,1-11.6,11,18.29,18.29,0,0,1-3.3.2c1.9,5.3-2,10.3-6.3,12.1a9.84,9.84,0,0,1-6.1.8,1.11,1.11,0,0,0-1.4.6v.1a33.41,33.41,0,0,1-12.6,12.7,1.25,1.25,0,0,1-1.7-.2,17.67,17.67,0,0,1-5.8-12.6H124.4c-1.2,0-2.4,0-3.6-.1h0V80h0l44.8-.4c.2,1.6.3,3,.6,4.4a14.43,14.43,0,0,0,4.6,8.1,1.29,1.29,0,0,0,1.8.3l.1-.1a32.44,32.44,0,0,0,12.5-13.2,41.7,41.7,0,0,0,5,0,10.18,10.18,0,0,0,8.5-8.8c.2-1.5-.1-2.5-1.4-4.4a9.85,9.85,0,0,0,1.7.2c7,.9,13.8-5.7,14.6-12.2.7-6.3-2.9-10-7-10.8a14.25,14.25,0,0,0-6.5.3c-1.3.4-2.5,1-3.8,1.4l-.9.3-.2-.3c.2-.3.4-.7.6-1,2-2.8,3.4-5.8,3.1-9.4a14.64,14.64,0,0,0-1.2-5.1c-1.7-4.4-3.6-8.7-5.4-13.1-.4.4-.8.9-1.3,1.4-2.7,2.9-5.3,5.9-8.1,8.6-3.9,3.7-9,5-14.1,6.1a86.91,86.91,0,0,1-16.1,1.5H129.9c-3.3,0-6.6-.2-9.9-.2h0Z" transform="translate(0.02 0.01)"/><path class="cls-32" d="M116.6,69.1a18,18,0,0,1,8.7-2.3c7.2-.2,14.4-.1,21.7-.2h1.3c-.7-1.4-1.3-2.8-2-4.1-.1-.3-.7-.3-1.1-.4-2.4-.2-4.9-.3-7.4-.7a12.23,12.23,0,0,1-2.4-1h13.8c1.4,4.6,4.5,6.5,9,6.3-.8,1.9-2.2,2.3-4.1,2.2-11.3-.1-22.6,0-33.8,0A22.34,22.34,0,0,1,116.6,69.1Z" transform="translate(0.02 0.01)"/><path class="cls-34" d="M116.6,69.1H154c1.9,0,3.3-.3,4.1-2.2-4.5.2-7.6-1.7-9-6.3H135.4a19.09,19.09,0,0,1,3.3-.6c3.4-.1,6.9,0,10.3,0a1.2,1.2,0,0,1,1,.7c1.2,3.7,3.5,5.5,7.4,5.5H160c-1.1,1.3-2,2.4-3,3.5-.2.2-.6.1-.9.1H119.3a25.58,25.58,0,0,1-2.7-.5Z" transform="translate(0.02 0.01)"/><path class="cls-35" d="M155.5,42.6l-2.6,1.9a5,5,0,0,0-1.2-.2H135.9a16.39,16.39,0,0,1-8.1-1.9c1.2.1,2.5.2,3.7.2Z" transform="translate(0.02 0.01)"/><path class="cls-36" d="M136.9,51.1a2.2,2.2,0,0,0,.8.1c4.2-.1,8.4-.2,12.6-.2a2,2,0,0,0,2-1c3.1-4.2,7.1-7.1,12.3-7.7,6.6-.8,11.2,2.2,13.2,8.7a20.32,20.32,0,0,1,.7,4.3c-.6-1.7-1-3.4-1.7-5-1.7-4.3-4.7-7-9.4-7.3a14.34,14.34,0,0,0-10,3,37.81,37.81,0,0,0-4.9,4.9,1.69,1.69,0,0,1-1.7.8c-4.6,0-9.2,0-13.8-.1h0l-.1-.5Z" transform="translate(0.02 0.01)"/><path class="cls-37" d="M155.5,42.6h-24c-1.2,0-2.5-.1-3.7-.2l-.1-.3c4.2-.1,8.4-.3,12.7-.3,5-.1,9.9,0,14.9,0h1.1l.1.2Z" transform="translate(0.02 0.01)"/><path class="cls-30" d="M136.8,51.1l.2.6Z" transform="translate(0.02 0.01)"/><path class="cls-30" d="M119.7,33.4v.3l-.4-.1Z" transform="translate(0.02 0.01)"/><path class="cls-30" d="M120.7,80" transform="translate(0.02 0.01)"/><path class="cls-38" d="M167.7,65.3l-4-.6a26,26,0,0,0,3-3.6,29,29,0,0,0,1.6-4.1l-.3-.2c-.8.5-1.7,1-2.6,1.5a5.42,5.42,0,0,1-2.5.6,2.33,2.33,0,0,1-1.6-1.3c-.2-.3.3-1.2.7-1.5a3.91,3.91,0,0,1,3.6-.7,7.08,7.08,0,0,1,5.4,3.9c.3.6.2.9-.4,1.2A5.48,5.48,0,0,0,167.7,65.3Zm1.2-8c-.7,2.7-1.6,5-3.7,6.7l1.9.3a6.63,6.63,0,0,1,3.6-4.7Zm-1.6-.9c-1.8-.6-3.3-.8-4.7.1a2.18,2.18,0,0,0-.5.8,1,1,0,0,0,.8.7,4.13,4.13,0,0,0,1.9-.2A12.29,12.29,0,0,0,167.3,56.4Z" transform="translate(0.02 0.01)"/><path class="cls-39" d="M194.4,56.5c-.7,3-1.7,5.8.8,8.2l-4.8.6c1.1-3,1-3.8-.9-5.4,2.7-2.8,5.8-4.9,9.9-4.6a2.26,2.26,0,0,1,1.7,1.3c.1.5-.5,1.3-1.1,1.8a2.72,2.72,0,0,1-3.5-.2C195.8,57.7,195.1,57.1,194.4,56.5Zm3.1-.5-2.1.6,2.4,1.7h.9l1.8-1.3c.1,0,.1,0,.1-.1s0-.1-.1-.1l-1.1-.8-.8-.2h0Zm-4.2,2.1-.3-.3-2.6,2c1.6,1.3,1.5,2.9,1.2,4.5l2-.3C192.5,62,192.8,60.1,193.3,58.1Z" transform="translate(0.02 0.01)"/><path class="cls-40" d="M167.9,69.1a10.84,10.84,0,0,1-1.9.8c-.2.1-.6-.2-.9-.4.2-.3.4-.8.6-.9a7.39,7.39,0,0,1,2.1,0Z" transform="translate(0.02 0.01)"/><path class="cls-41" d="M188.3,68.7a12.1,12.1,0,0,1,1.9-.1c.3,0,.4.5.7.8-.3.2-.7.5-.9.4a13.36,13.36,0,0,1-1.8-.7Z" transform="translate(0.02 0.01)"/><path class="cls-42" d="M168.9,57.3l1.8,2.3a6.63,6.63,0,0,0-3.6,4.7l-1.9-.4C167.3,62.2,168.2,60,168.9,57.3Z" transform="translate(0.02 0.01)"/><path class="cls-43" d="M167.2,56.4c-.8.5-1.6,1-2.5,1.5a4.13,4.13,0,0,1-1.9.2,1,1,0,0,1-.8-.7c-.1-.2.2-.7.5-.8C164,55.6,165.4,55.9,167.2,56.4Z" transform="translate(0.02 0.01)"/><path class="cls-44" d="M193.3,58.1c-.4,2-.8,3.9.4,5.9l-2,.3c.2-1.6.4-3.2-1.2-4.5l2.6-2Z" transform="translate(0.02 0.01)"/><path class="cls-45" d="M198.6,55.8h0l.8.2,1.1.8V57l-1.8,1.3h-.9l-2.4-1.7,2.1-.6Z" transform="translate(0.02 0.01)"/><path class="cls-46" d="M197.7,58.2Z" transform="translate(0.02 0.01)"/><path class="cls-46" d="M198.6,55.8l-1.1.2Z" transform="translate(0.02 0.01)"/><path class="cls-46" d="M199.4,56l-.8-.2Z" transform="translate(0.02 0.01)"/><path class="cls-46" d="M200.5,57Z" transform="translate(0.02 0.01)"/><text class="cls-47" transform="translate(205.59 37.42) scale(1.14 1)">TM</text><path class="cls-1" d="M204.5,315c-.6-5-29.6,1.6-27.9,6.4C177.1,326.4,206.1,319.8,204.5,315Zm-26.6,5.6c-1.3-3.5,23.4-9.5,23.8-5.8C203,318.3,178.3,324.3,177.9,320.6Zm25.1-5.2c-1.6,3.1-12.2,5.9-15.2,6.1a55,55,0,0,0,11.1-3.5c6.6-3.3,3.1-4.6-2.1-4.3h0C197.8,313.7,203.4,312.9,203,315.4Z" transform="translate(0.02 0.01)"/></g></g><g id="Layer_2-2" data-name="Layer 2-2"><path class="cls-48" d="M77.5,60.5a14,14,0,0,1-1,1.6A58.91,58.91,0,0,1,65.4,74.4a86.54,86.54,0,0,1-11.6,8.2c-1,.6-1.9,1.1-2.7,1.6a20.93,20.93,0,0,1-2.7-1.6,93.45,93.45,0,0,1-11.6-8.2,63.49,63.49,0,0,1-6.5-6.2" transform="translate(0.02 0.01)"/><path class="cls-49" d="M31.4,71a52.59,52.59,0,0,1-4.5-5.8,25.71,25.71,0,0,1-4.5-13.7V15.9A113,113,0,0,1,34,13.7a129.76,129.76,0,0,1,34.1,0,113,113,0,0,1,11.6,2.2V51.5a25,25,0,0,1-3.5,12.2" transform="translate(0.02 0.01)"/><path class="cls-48" d="M81.4,14A102.66,102.66,0,0,0,67,10.9a111.51,111.51,0,0,0-31.6,0A99.7,99.7,0,0,0,21,14l-.4.1V50a28.13,28.13,0,0,0,4.8,15.1A50.43,50.43,0,0,0,35.9,76.7a93.53,93.53,0,0,0,10.4,7.4c2.8,1.7,4.7,2.6,4.8,2.7l.3.1.3-.1a41.05,41.05,0,0,0,4.8-2.7,76.18,76.18,0,0,0,10.4-7.5A52.81,52.81,0,0,0,77.4,65a28.13,28.13,0,0,0,4.8-15.1V14.2ZM79.2,50a25,25,0,0,1-4.4,13.7,51.69,51.69,0,0,1-9.9,11,71.29,71.29,0,0,1-10.1,7.2q-2.4,1.5-3.6,2.1-1.2-.6-3.6-2.1a88.33,88.33,0,0,1-10.1-7.2,51.69,51.69,0,0,1-9.9-11A25.61,25.61,0,0,1,23.2,50V16.2a104.18,104.18,0,0,1,12.6-2.6,114.19,114.19,0,0,1,30.9,0,94,94,0,0,1,12.6,2.6V50Z" transform="translate(0.02 0.01)"/><path class="cls-50" d="M51.1,90.8l-.6-.3a47.79,47.79,0,0,1-5.2-2.9,90.58,90.58,0,0,1-11.4-8.1A59.89,59.89,0,0,1,22.4,66.9a30.88,30.88,0,0,1-5.3-16.7v-39l1.1-.3A118.54,118.54,0,0,1,33.9,7.5a123.87,123.87,0,0,1,34.4,0A104.27,104.27,0,0,1,84,10.8h0l1.1.3v39a31.15,31.15,0,0,1-5.3,16.7A55.16,55.16,0,0,1,68.3,79.4a90.58,90.58,0,0,1-11.4,8.1c-3.1,1.8-5.1,2.8-5.2,2.9ZM18.8,12.5V50.3a29.82,29.82,0,0,0,5,15.8A56.51,56.51,0,0,0,34.9,78.4a80.58,80.58,0,0,0,11.2,7.9c2.7,1.6,4.6,2.6,5,2.8a51.62,51.62,0,0,0,5-2.8,96.9,96.9,0,0,0,11.1-7.9A56.51,56.51,0,0,0,78.3,66.1a29.65,29.65,0,0,0,5.1-15.8V12.5A101.51,101.51,0,0,0,68.1,9.3a128.25,128.25,0,0,0-33.9,0A87.7,87.7,0,0,0,18.8,12.5Z" transform="translate(0.02 0.01)"/><path class="cls-1" d="M83.8,11.7A103,103,0,0,0,68.2,8.4,130.52,130.52,0,0,0,34,8.4a103,103,0,0,0-15.6,3.3l-.4.2V50.3a29.41,29.41,0,0,0,5.2,16.2A53.36,53.36,0,0,0,34.5,78.9a98.88,98.88,0,0,0,11.2,8,50,50,0,0,0,5.1,2.8l.3.1.3-.1a50,50,0,0,0,5.1-2.8,98.88,98.88,0,0,0,11.2-8A57.7,57.7,0,0,0,79,66.5a29.41,29.41,0,0,0,5.2-16.2V11.9ZM81.4,50.3A27.82,27.82,0,0,1,76.7,65,57.17,57.17,0,0,1,66,76.8a82.49,82.49,0,0,1-10.9,7.7c-1.7,1-3.1,1.8-3.9,2.2-.8-.4-2.2-1.2-3.9-2.2a102.21,102.21,0,0,1-10.9-7.7A54.48,54.48,0,0,1,25.7,65,26.46,26.46,0,0,1,21,50.3V14a126.13,126.13,0,0,1,13.6-2.8,124.51,124.51,0,0,1,33.4,0A105.84,105.84,0,0,1,81.6,14V50.3Z" transform="translate(0.02 0.01)"/><polygon class="cls-48" points="76.13 63.01 77.83 59.81 28.82 68.01 30.93 70.51 76.13 63.01"/><polyline class="cls-1" points="78.13 62.61 76.72 65.41 76.72 65.41 31.52 73.01 31.52 73.01 29.63 70.71 29.63 70.71 78.22 62.61"/><path class="cls-48" d="M36.3,25.1h32c-2.1-6-7.6-10.8-16.9-11.1-8.4.7-12.2,5.4-15.1,11.1" transform="translate(0.02 0.01)"/><path class="cls-48" d="M52.5,12.9a.22.22,0,0,0-.2-.2h-.7l.1-3.3-.6-.8-.6.8.2,3.3H50a.2.2,0,0,0,0,.4v1.2h2.3V13.1C52.4,13.2,52.5,13,52.5,12.9Z" transform="translate(0.02 0.01)"/><polyline class="cls-1" points="50.52 12.61 50.42 9.11 50.52 9.11 50.73 12.61"/><polyline class="cls-1" points="51.63 12.61 51.73 9.11 51.92 9.11 51.83 12.61"/><polygon class="cls-48" points="32.42 68.71 28.93 67.11 28.93 46.21 29.43 45.61 29.43 40.51 30.13 39.61 30.13 37.31 29.93 36.41 27.32 35.51 29.93 33.51 28.73 32.91 33.83 23.81 39.13 25.01 40.42 25.01 43.42 22.61 45.13 22.91 45.13 66.51 32.42 68.71"/><polyline class="cls-1" points="76.33 39.81 76.33 44.81 76.33 44.81 76.72 44.81 76.72 47.91 77.92 48.31 77.92 49.91 76.72 50.61 76.72 62.91 44.83 68.51 44.83 45.71 43.92 45.01 43.92 43.41 43.92 43.41 44.33 43.51 44.33 39.71 43.92 38.51 45.13 38.71 45.13 38.71 45.13 28.61 44.33 28.41 44.33 25.61 44.13 24.41 43.33 22.51 49.83 23.61 61.13 19.91 71.63 26.91 71.13 27.31 77.03 28.51 74.33 30.71 74.33 33.21 75.42 34.41 75.42 38.51 76.33 39.81"/><polygon class="cls-1" points="76.33 44.81 76.33 44.41 76.72 44.81 76.33 44.81"/><polyline class="cls-1" points="38.52 42.91 37.73 42.21 38.52 41.61 38.52 33.21 38.52 33.21 37.02 32.31 38.83 30.61 39.52 30.81 39.52 28.01 39.52 28.01 31.13 34.41 31.13 35.71 31.13 35.71 29.93 36.41 27.32 35.61 27.32 35.51 29.82 33.51 28.73 32.91 33.83 23.81 39.13 25.01 40.42 25.01 40.42 25.01 43.33 22.51 44.13 24.41 44.42 25.61 41.23 28.31 41.23 31.21 41.23 31.21 40.83 31.11 40.73 31.91 40.73 40.81 40.73 40.81 43.92 38.51 44.42 39.71 40.73 42.31 40.73 45.61 40.73 45.61 43.92 43.41 44.83 43.61 44.83 45.71 40.52 48.21 40.73 52.31 40.13 52.51 39.83 52.51 39.33 53.01 38.92 52.51 39.13 51.61 37.92 49.91 33.02 53.21 33.23 57.41 32.52 57.51 32.33 57.51 31.73 58.01 31.32 57.51 31.82 56.61 30.52 55.01 28.93 56.01 27.73 55.91 27.73 54.51 30.23 52.71 30.23 52.21 29.73 51.91 31.23 50.81 31.23 48.51 28.93 50.11 28.23 49.41 30.82 47.41 30.63 47.21 31.23 46.61 31.23 38.51 31.23 38.51 29.52 37.51 31.63 36.01 32.83 36.11 33.23 37.51 33.23 46.11 33.23 46.11 33.63 46.21 33.42 47.31 33.42 50.41 37.83 47.51 37.83 46.81 37.23 46.61 38.52 45.71 38.52 42.91"/><polyline class="cls-48" points="30.23 33.21 39.33 26.51 34.63 25.41 34.63 25.41 30.23 33.21"/><path class="cls-48" d="M57.3,59.5v9.2l7.9-1.2V60.9h0A5,5,0,0,0,61,57.1h.1a3.34,3.34,0,0,0-3.8,2.2" transform="translate(0.02 0.01)"/><polyline class="cls-51" points="53.63 40.51 53.42 40.81 53.42 40.81 53.42 41.01 53.42 41.01 65.92 43.01 65.92 43.01 65.92 42.61 65.92 42.61 53.63 40.61"/><polyline class="cls-52" points="68.42 49.31 68.13 48.61 68.13 48.61 68.13 48.61 68.13 48.61 68.42 49.31"/><line class="cls-53" x1="70.22" y1="28.01" x2="70.22" y2="28.01"/><polygon class="cls-50" points="44.83 46.11 76.72 50.51 78.03 49.81 78.03 48.11 43.92 43.41 43.92 45.01 44.83 46.11"/><polyline class="cls-50" points="49.83 23.61 61.13 19.91 71.63 26.91 70.22 28.01 69.42 29.11 69.42 29.81 69.42 29.81 50.73 26.61 50.73 26.61 50.42 25.31 49.83 23.61"/><polygon class="cls-50" points="76.72 44.81 77.42 43.81 43.92 38.51 44.33 39.71 76.72 44.81"/><polygon class="cls-50" points="77.03 28.51 71.13 27.31 70.22 28.01 69.42 29.11 69.42 29.81 74.33 30.71 77.03 28.51"/><polyline class="cls-50" points="49.83 23.61 43.33 22.51 44.13 24.41 44.33 25.61 51.83 26.81 51.83 26.01 51.52 24.71 50.92 23.21 49.83 23.61"/><polygon class="cls-1" points="60.73 21.71 51.52 24.71 70.03 27.91 60.73 21.71"/><polygon class="cls-1" points="53.23 40.51 67.92 42.91 67.92 39.81 53.23 37.51 53.23 40.51"/><line class="cls-53" x1="65.43" y1="34.61" x2="67.93" y2="35.01"/><polyline class="cls-50" points="53.23 32.51 67.92 35.01 67.92 35.41 53.23 33.01 53.23 32.51"/><path class="cls-48" d="M55.7,38.6V35.4a1.48,1.48,0,0,1-.7.1V35a.84.84,0,0,0,.8-.8h.3v4.4c0,.2.1.2.2.3h.4v.5l-1.6-.2v-.5h.4C55.6,38.9,55.7,38.8,55.7,38.6Z" transform="translate(0.02 0.01)"/><path class="cls-48" d="M57.7,37.2a1.66,1.66,0,0,1-.5-1.2,1.16,1.16,0,0,1,1.2-1.2h.3A1.42,1.42,0,0,1,60,36.2a1.23,1.23,0,0,1-.7,1.1,1.51,1.51,0,0,1,.7,1.4A1.3,1.3,0,0,1,58.8,40h-.3a1.48,1.48,0,0,1-1.4-1.6h0A1.07,1.07,0,0,1,57.7,37.2Zm.7,2.2a.72.72,0,0,0,.9-.5v-.2a.67.67,0,0,0-.4-.7l-.9-.6a1.05,1.05,0,0,0-.5.9A.94.94,0,0,0,58.4,39.4Zm-.2-2.7.6.4a1.15,1.15,0,0,0,.6-.9.75.75,0,0,0-.7-.9h0a.66.66,0,0,0-.8.5V36C57.8,36.2,58,36.5,58.2,36.7Z" transform="translate(0.02 0.01)"/><path class="cls-48" d="M61.8,39.6v-.7l-1.6-.2v-.5L62,35.3l.5.1-.2,3.1.7.1v.5l-.7-.1v.7c0,.2.1.3.2.3h.4v.5l-1.7-.2v-.5l.4.1C61.7,39.8,61.8,39.7,61.8,39.6Zm-1.1-1.4,1.2.2.1-2.2Z" transform="translate(0.02 0.01)"/><polygon class="cls-48" points="50.73 26.61 50.73 29.11 50.23 29.41 51.23 31.21 51.23 39.31 51.02 39.41 51.52 40.61 51.52 44.41 52.02 45.01 52.02 46.21 52.23 46.21 52.02 46.71 52.02 51.01 52.83 50.51 52.52 49.81 53.33 46.61 52.83 45.71 52.83 44.61 52.52 44.01 52.52 40.31 51.92 39.31 52.52 39.31 52.52 30.51 51.52 28.81 51.83 28.81 51.83 26.01 51.52 24.71 50.92 23.21 49.83 23.61 50.42 25.31 50.73 26.61"/><polygon class="cls-48" points="52.02 46.21 52.02 46.71 52.23 46.21 52.02 46.21"/><polygon class="cls-48" points="49.84 23.59 50.98 23.21 50.98 23.21 49.84 23.59"/><polygon class="cls-48" points="54.23 50.71 53.42 51.21 53.42 45.81 54.33 45.91 54.73 46.81 53.92 50.11 54.23 50.71"/><polyline class="cls-50" points="55.33 46.11 55.33 45.01 55.83 44.51 54.52 44.31 54.52 40.61 55.52 39.61 54.52 39.51 54.52 31.01 55.63 29.51 51.52 28.81 52.52 30.51 52.52 39.31 51.92 39.31 52.52 40.31 52.52 44.01 52.83 44.61 52.83 45.71 53.33 46.61 52.52 49.81 52.83 50.51 52.02 51.01 52.83 51.01 53.33 50.51 53.13 49.81 53.92 46.71 53.52 45.91 54.33 46.01 54.73 46.81 54.73 46.81 53.92 50.11 54.23 50.71 53.42 51.21 54.23 51.21 54.73 50.71 54.52 50.11 55.33 46.91 55.02 46.11 55.33 46.11"/><polyline class="cls-48" points="67.63 46.31 68.03 46.01 68.33 46.81 68.33 47.81 68.83 48.61 68.03 51.81 68.33 52.61 67.53 53.01 67.53 48.81 67.72 48.41 67.72 47.11 67.53 46.71 66.83 46.51 66.83 42.91 66.42 41.91 66.92 41.61 66.92 33.41 66.22 32.01 66.83 31.41 67.63 33.11 67.63 41.61 67.22 41.61 67.63 42.61 67.63 46.31"/><polygon class="cls-48" points="69.33 52.11 69.63 52.81 69.03 53.21 69.03 47.81 69.63 48.01 70.22 48.81 69.33 52.11"/><polyline class="cls-50" points="67.53 53.01 68.22 52.61 67.92 51.81 68.83 48.61 68.33 47.81 68.33 46.81 68.03 46.01 67.63 46.31 67.63 46.31 67.63 42.61 67.63 42.61 67.22 41.61 67.63 41.61 67.63 33.11 66.83 31.41 71.03 31.91 69.42 33.31 69.42 41.91 69.42 41.91 70.33 42.01 69.42 42.91 69.42 46.41 71.33 46.71 70.83 47.01 70.83 48.21 70.42 48.21 70.83 48.91 69.92 52.11 70.22 52.81 69.72 53.21 69.03 53.21 69.63 52.81 69.33 52.11 70.22 48.81 69.72 48.01 69.03 47.91 69.42 48.71 68.53 51.91 68.83 52.51 68.22 53.01 67.53 53.01"/><path class="cls-48" d="M64.3,36.5l-.1,1.2a1,1,0,0,1,1-.3c1,.1,1.3,1,1.2,1.9-.1,1.2-.8,1.8-1.7,1.7a1.24,1.24,0,0,1-1.2-1.3c0-.3.2-.7.5-.6a.55.55,0,0,1,.4.6.37.37,0,0,1-.4.4.67.67,0,0,0,.7.4c.7.1,1-.4,1-1.2s-.2-1.2-.8-1.3a.75.75,0,0,0-.7.4l-.4-.1.2-2.6" transform="translate(0.02 0.01)"/><polyline class="cls-48" points="63.92 35.71 66.33 36.11 66.33 36.81 64.33 36.51"/><polygon class="cls-48" points="29.13 56.31 27.43 56.11 27.43 54.21 29.02 53.01 29.23 53.41 27.82 54.41 27.82 55.71 29.13 55.91 29.13 56.31"/><polygon class="cls-48" points="28.93 50.51 27.93 49.21 29.02 48.31 29.32 48.71 28.52 49.31 29.23 50.21 28.93 50.51"/><polygon class="cls-48" points="30.13 38.41 28.82 37.61 30.02 36.71 30.32 37.01 29.63 37.51 30.43 38.01 30.13 38.41"/><polygon class="cls-48" points="30.32 36.71 26.93 35.61 29.43 33.51 28.43 33.01 33.73 23.41 39.23 24.61 39.13 25.01 33.92 23.81 29.02 32.81 30.23 33.41 27.73 35.51 30.43 36.31 30.32 36.71"/><polyline class="cls-48" points="76.33 50.51 76.33 63.01 76.72 62.91 76.72 50.51"/><polyline class="cls-48" points="76.72 47.91 76.72 44.81 76.33 44.81 76.33 47.91"/><polyline class="cls-48" points="76.33 43.71 76.33 39.71 75.42 38.51 75.42 34.31 74.33 33.21 74.33 30.71 73.92 30.61 73.92 33.31 75.03 34.51 75.03 38.61 75.92 39.81 75.92 43.61"/><polygon class="cls-48" points="74.13 30.91 73.83 30.61 76.63 28.41 70.63 27.41 71.42 26.71 67.33 24.01 67.53 23.71 72.13 26.71 71.63 27.21 77.72 28.21 74.13 30.91"/><polyline class="cls-48" points="76.33 45.01 76.53 45.11 77.72 43.51 76.03 43.21 75.92 43.61 77.03 43.81 76.33 44.71"/><polyline class="cls-48" points="76.33 48.11 77.83 48.31 77.83 49.71 76.33 50.51 76.53 50.91 78.22 49.91 78.22 47.91 76.33 47.71 76.33 47.91"/></g></g><path class="cls-1" d="M251.56,364.13l-16-5.32a.89.89,0,0,0-.56,0l-16,5.32a.91.91,0,0,0-.61.85.89.89,0,0,0,.61.84l4.71,1.57v4.68a.92.92,0,0,0,.26.63c.16.16,3.9,3.81,11.28,3.81a18.87,18.87,0,0,0,7.44-1.44.89.89,0,0,0-.69-1.63,17.21,17.21,0,0,1-6.75,1.3,17,17,0,0,1-7.51-1.64,12.13,12.13,0,0,1-2.25-1.42V368l9.48,3.17a1,1,0,0,0,.56,0l9.48-3.17v1.59a2.66,2.66,0,0,0-.19,4.94l-1.56,6.22a.89.89,0,0,0,.17.77.88.88,0,0,0,.69.34h3.56a.88.88,0,0,0,.69-.34.92.92,0,0,0,.17-.77L247,374.51a2.66,2.66,0,0,0-.19-4.94v-2.18l4.71-1.57a.89.89,0,0,0,0-1.69ZM246,371.19a.89.89,0,1,1-.89.89.9.9,0,0,1,.89-.89Zm-.64,8.87.64-2.55.64,2.55Zm.57-14.22-10.43-1.74a.89.89,0,0,0-.29,1.75l7.12,1.19-7,2.32L222.14,365l13.16-4.39L248.47,365l-2.59.87Z" transform="translate(0.02 0.01)"/><path class="cls-1" d="M251.56,409.5l-16-5.33a.89.89,0,0,0-.56,0l-16,5.33a.89.89,0,0,0,0,1.68l4.72,1.57v4.69a.85.85,0,0,0,.26.62c.15.16,3.89,3.81,11.28,3.81a19.08,19.08,0,0,0,7.44-1.43.9.9,0,0,0,.47-1.17.89.89,0,0,0-1.16-.47,18.11,18.11,0,0,1-14.27-.34,11.6,11.6,0,0,1-2.24-1.42v-3.69l9.48,3.16a.87.87,0,0,0,.28.05.86.86,0,0,0,.27-.05l9.48-3.16v1.58a2.66,2.66,0,0,0-.18,4.94l-1.56,6.23a.87.87,0,0,0,.16.76.91.91,0,0,0,.7.34h3.55a.9.9,0,0,0,.7-.34.87.87,0,0,0,.16-.76L247,419.87a2.66,2.66,0,0,0-.19-4.94v-2.17l4.72-1.58a.89.89,0,0,0,0-1.68Zm-5.6,7.05a.89.89,0,1,1-.89.89.89.89,0,0,1,.89-.89Zm-.64,8.88.64-2.56.64,2.56Zm.57-14.23-10.43-1.73a.89.89,0,1,0-.3,1.75l7.13,1.18-7,2.33-13.17-4.39L235.31,406l13.17,4.39-2.59.86Z" transform="translate(0.02 0.01)"/></svg>